G04 Layer_Color=8388736*
%FSTAX24Y24*%
%MOIN*%
G70*
G01*
G75*
%ADD24R,0.0789X0.0789*%
%ADD25C,0.0789*%
%ADD26R,0.1064X0.1064*%
%ADD27C,0.1064*%
%ADD28R,0.0789X0.0789*%
%ADD29C,0.0749*%
D24*
X057786Y062351D02*
D03*
X021819Y057595D02*
D03*
X026378Y03987D02*
D03*
X054724Y046535D02*
D03*
D25*
X057786Y061351D02*
D03*
Y060351D02*
D03*
Y059351D02*
D03*
Y058351D02*
D03*
Y057351D02*
D03*
X021819Y058595D02*
D03*
Y059595D02*
D03*
Y060595D02*
D03*
Y061595D02*
D03*
Y062595D02*
D03*
X049213Y068504D02*
D03*
Y064567D02*
D03*
X046063Y068504D02*
D03*
Y064567D02*
D03*
X044094Y068504D02*
D03*
Y064567D02*
D03*
X050394Y051969D02*
D03*
Y055906D02*
D03*
X048425Y051969D02*
D03*
Y055906D02*
D03*
X046457Y051969D02*
D03*
Y055906D02*
D03*
X044488Y051969D02*
D03*
Y055906D02*
D03*
X034646Y068489D02*
D03*
Y064552D02*
D03*
X031795Y068489D02*
D03*
Y064552D02*
D03*
X029134Y068543D02*
D03*
Y064606D02*
D03*
X034787Y051874D02*
D03*
Y055811D02*
D03*
X033078Y051894D02*
D03*
Y055831D02*
D03*
X031292Y051942D02*
D03*
Y055879D02*
D03*
X029408Y051894D02*
D03*
Y055831D02*
D03*
X050878Y040945D02*
D03*
X051968Y04685D02*
D03*
Y042913D02*
D03*
X047835Y04685D02*
D03*
Y042913D02*
D03*
X043504Y04685D02*
D03*
Y042913D02*
D03*
X039173Y04685D02*
D03*
Y042913D02*
D03*
X035039Y04685D02*
D03*
Y042913D02*
D03*
X030906Y04685D02*
D03*
Y042913D02*
D03*
X020866Y043307D02*
D03*
X024803D02*
D03*
X047835Y040945D02*
D03*
X045866D02*
D03*
X043504D02*
D03*
X041535D02*
D03*
X039173D02*
D03*
X037205D02*
D03*
X035039D02*
D03*
X033071D02*
D03*
X030906D02*
D03*
X028937D02*
D03*
X026378Y03887D02*
D03*
X040354Y051181D02*
D03*
Y055118D02*
D03*
X045244Y063221D02*
D03*
X046244D02*
D03*
X047244D02*
D03*
X048244D02*
D03*
X049244D02*
D03*
X031194Y063214D02*
D03*
X032194D02*
D03*
X033194D02*
D03*
X034194D02*
D03*
X035194D02*
D03*
X039461Y061993D02*
D03*
Y058449D02*
D03*
X021369Y054146D02*
D03*
X025306D02*
D03*
X057677Y054528D02*
D03*
X05374D02*
D03*
X021705Y051378D02*
D03*
X055618Y051772D02*
D03*
X056224Y063539D02*
D03*
Y062539D02*
D03*
Y061539D02*
D03*
Y060539D02*
D03*
Y059539D02*
D03*
Y058539D02*
D03*
Y057539D02*
D03*
Y056539D02*
D03*
X053224Y059539D02*
D03*
Y058539D02*
D03*
Y057539D02*
D03*
Y056539D02*
D03*
Y060539D02*
D03*
Y061539D02*
D03*
Y062539D02*
D03*
Y063539D02*
D03*
X023697Y056343D02*
D03*
Y057343D02*
D03*
Y058343D02*
D03*
Y059343D02*
D03*
Y060343D02*
D03*
Y061343D02*
D03*
Y062343D02*
D03*
Y063343D02*
D03*
X026697Y060343D02*
D03*
Y061343D02*
D03*
Y062343D02*
D03*
Y063343D02*
D03*
Y059343D02*
D03*
Y058343D02*
D03*
Y057343D02*
D03*
Y056343D02*
D03*
X054724Y045535D02*
D03*
Y044535D02*
D03*
Y043535D02*
D03*
Y042535D02*
D03*
Y041535D02*
D03*
D26*
X021835Y040157D02*
D03*
D27*
X023835D02*
D03*
D28*
X051878Y040945D02*
D03*
X040461Y061993D02*
D03*
Y058449D02*
D03*
X022705Y051378D02*
D03*
X054618Y051772D02*
D03*
D29*
X049244Y057221D02*
D03*
X048244D02*
D03*
X047244D02*
D03*
X046244D02*
D03*
X04526D02*
D03*
X035194Y057214D02*
D03*
X034194D02*
D03*
X033194D02*
D03*
X032194D02*
D03*
X031209D02*
D03*
M02*
