G04 Layer_Color=128*
%FSTAX24Y24*%
%MOIN*%
G70*
G01*
G75*
%ADD30C,0.0020*%
D30*
X057629Y062351D02*
X057944D01*
X057786Y062193D02*
Y062508D01*
X057629Y061351D02*
X057944D01*
X057786Y061193D02*
Y061508D01*
X057629Y060351D02*
X057944D01*
X057786Y060193D02*
Y060508D01*
X057629Y059351D02*
X057944D01*
X057786Y059193D02*
Y059508D01*
X057629Y058351D02*
X057944D01*
X057786Y058193D02*
Y058508D01*
X057629Y057351D02*
X057944D01*
X057786Y057193D02*
Y057508D01*
X021661Y057595D02*
X021976D01*
X021819Y057437D02*
Y057752D01*
X021661Y058595D02*
X021976D01*
X021819Y058437D02*
Y058752D01*
X021661Y059595D02*
X021976D01*
X021819Y059437D02*
Y059752D01*
X021661Y060595D02*
X021976D01*
X021819Y060437D02*
Y060752D01*
X021661Y061595D02*
X021976D01*
X021819Y061437D02*
Y061752D01*
X021661Y062595D02*
X021976D01*
X021819Y062437D02*
Y062752D01*
X049055Y068504D02*
X04937D01*
X049213Y068346D02*
Y068661D01*
X049055Y064567D02*
X04937D01*
X049213Y064409D02*
Y064724D01*
X045906Y068504D02*
X04622D01*
X046063Y068346D02*
Y068661D01*
X045906Y064567D02*
X04622D01*
X046063Y064409D02*
Y064724D01*
X043937Y068504D02*
X044252D01*
X044094Y068346D02*
Y068661D01*
X043937Y064567D02*
X044252D01*
X044094Y064409D02*
Y064724D01*
X050236Y051969D02*
X050551D01*
X050394Y051811D02*
Y052126D01*
X050236Y055906D02*
X050551D01*
X050394Y055748D02*
Y056063D01*
X048268Y051969D02*
X048583D01*
X048425Y051811D02*
Y052126D01*
X048268Y055906D02*
X048583D01*
X048425Y055748D02*
Y056063D01*
X046299Y051969D02*
X046614D01*
X046457Y051811D02*
Y052126D01*
X046299Y055906D02*
X046614D01*
X046457Y055748D02*
Y056063D01*
X044331Y051969D02*
X044646D01*
X044488Y051811D02*
Y052126D01*
X044331Y055906D02*
X044646D01*
X044488Y055748D02*
Y056063D01*
X034488Y068489D02*
X034803D01*
X034646Y068331D02*
Y068646D01*
X034488Y064552D02*
X034803D01*
X034646Y064394D02*
Y064709D01*
X031638Y068489D02*
X031953D01*
X031795Y068331D02*
Y068646D01*
X031638Y064552D02*
X031953D01*
X031795Y064394D02*
Y064709D01*
X028976Y068543D02*
X029291D01*
X029134Y068386D02*
Y068701D01*
X028976Y064606D02*
X029291D01*
X029134Y064449D02*
Y064764D01*
X03463Y051874D02*
X034945D01*
X034787Y051717D02*
Y052032D01*
X03463Y055811D02*
X034945D01*
X034787Y055654D02*
Y055969D01*
X032921Y051894D02*
X033236D01*
X033078Y051736D02*
Y052051D01*
X032921Y055831D02*
X033236D01*
X033078Y055673D02*
Y055988D01*
X031134Y051942D02*
X031449D01*
X031292Y051785D02*
Y0521D01*
X031134Y055879D02*
X031449D01*
X031292Y055722D02*
Y056037D01*
X029251Y051894D02*
X029566D01*
X029408Y051736D02*
Y052051D01*
X029251Y055831D02*
X029566D01*
X029408Y055673D02*
Y055988D01*
X021579Y040157D02*
X022091D01*
X021835Y039902D02*
Y040413D01*
X023579Y040157D02*
X024091D01*
X023835Y039902D02*
Y040413D01*
X05072Y040945D02*
X051035D01*
X050878Y040787D02*
Y041102D01*
X05172Y040945D02*
X052035D01*
X051878Y040787D02*
Y041102D01*
X051811Y04685D02*
X052126D01*
X051968Y046693D02*
Y047008D01*
X051811Y042913D02*
X052126D01*
X051968Y042756D02*
Y043071D01*
X047677Y04685D02*
X047992D01*
X047835Y046693D02*
Y047008D01*
X047677Y042913D02*
X047992D01*
X047835Y042756D02*
Y043071D01*
X043346Y04685D02*
X043661D01*
X043504Y046693D02*
Y047008D01*
X043346Y042913D02*
X043661D01*
X043504Y042756D02*
Y043071D01*
X039016Y04685D02*
X039331D01*
X039173Y046693D02*
Y047008D01*
X039016Y042913D02*
X039331D01*
X039173Y042756D02*
Y043071D01*
X034882Y04685D02*
X035197D01*
X035039Y046693D02*
Y047008D01*
X034882Y042913D02*
X035197D01*
X035039Y042756D02*
Y043071D01*
X030748Y04685D02*
X031063D01*
X030906Y046693D02*
Y047008D01*
X030748Y042913D02*
X031063D01*
X030906Y042756D02*
Y043071D01*
X020709Y043307D02*
X021024D01*
X020866Y04315D02*
Y043465D01*
X024646Y043307D02*
X024961D01*
X024803Y04315D02*
Y043465D01*
X047677Y040945D02*
X047992D01*
X047835Y040787D02*
Y041102D01*
X045709Y040945D02*
X046024D01*
X045866Y040787D02*
Y041102D01*
X043346Y040945D02*
X043661D01*
X043504Y040787D02*
Y041102D01*
X041378Y040945D02*
X041693D01*
X041535Y040787D02*
Y041102D01*
X039016Y040945D02*
X039331D01*
X039173Y040787D02*
Y041102D01*
X037047Y040945D02*
X037362D01*
X037205Y040787D02*
Y041102D01*
X034882Y040945D02*
X035197D01*
X035039Y040787D02*
Y041102D01*
X032913Y040945D02*
X033228D01*
X033071Y040787D02*
Y041102D01*
X030748Y040945D02*
X031063D01*
X030906Y040787D02*
Y041102D01*
X02878Y040945D02*
X029094D01*
X028937Y040787D02*
Y041102D01*
X02622Y03887D02*
X026535D01*
X026378Y038713D02*
Y039028D01*
X02622Y03987D02*
X026535D01*
X026378Y039713D02*
Y040028D01*
X040197Y051181D02*
X040512D01*
X040354Y051024D02*
Y051339D01*
X040197Y055118D02*
X040512D01*
X040354Y054961D02*
Y055276D01*
X045087Y063221D02*
X045402D01*
X045244Y063063D02*
Y063378D01*
X046087Y063221D02*
X046402D01*
X046244Y063063D02*
Y063378D01*
X047087Y063221D02*
X047402D01*
X047244Y063063D02*
Y063378D01*
X048087Y063221D02*
X048402D01*
X048244Y063063D02*
Y063378D01*
X049087Y063221D02*
X049402D01*
X049244Y063063D02*
Y063378D01*
X049087Y057221D02*
X049402D01*
X049244Y057063D02*
Y057378D01*
X048087Y057221D02*
X048402D01*
X048244Y057063D02*
Y057378D01*
X047087Y057221D02*
X047402D01*
X047244Y057063D02*
Y057378D01*
X046087Y057221D02*
X046402D01*
X046244Y057063D02*
Y057378D01*
X045102Y057221D02*
X045417D01*
X04526Y057063D02*
Y057378D01*
X031036Y063214D02*
X031351D01*
X031194Y063056D02*
Y063371D01*
X032036Y063214D02*
X032351D01*
X032194Y063056D02*
Y063371D01*
X033036Y063214D02*
X033351D01*
X033194Y063056D02*
Y063371D01*
X034036Y063214D02*
X034351D01*
X034194Y063056D02*
Y063371D01*
X035036Y063214D02*
X035351D01*
X035194Y063056D02*
Y063371D01*
X035036Y057214D02*
X035351D01*
X035194Y057056D02*
Y057371D01*
X034036Y057214D02*
X034351D01*
X034194Y057056D02*
Y057371D01*
X033036Y057214D02*
X033351D01*
X033194Y057056D02*
Y057371D01*
X032036Y057214D02*
X032351D01*
X032194Y057056D02*
Y057371D01*
X031052Y057214D02*
X031367D01*
X031209Y057056D02*
Y057371D01*
X039303Y061993D02*
X039618D01*
X039461Y061835D02*
Y06215D01*
X040303Y061993D02*
X040618D01*
X040461Y061835D02*
Y06215D01*
X039303Y058449D02*
X039618D01*
X039461Y058292D02*
Y058607D01*
X040303Y058449D02*
X040618D01*
X040461Y058292D02*
Y058607D01*
X021211Y054146D02*
X021526D01*
X021369Y053989D02*
Y054304D01*
X025148Y054146D02*
X025463D01*
X025306Y053989D02*
Y054304D01*
X05752Y054528D02*
X057835D01*
X057677Y05437D02*
Y054685D01*
X053583Y054528D02*
X053898D01*
X05374Y05437D02*
Y054685D01*
X021547Y051378D02*
X021862D01*
X021705Y05122D02*
Y051535D01*
X022547Y051378D02*
X022862D01*
X022705Y05122D02*
Y051535D01*
X055461Y051772D02*
X055776D01*
X055618Y051614D02*
Y051929D01*
X054461Y051772D02*
X054776D01*
X054618Y051614D02*
Y051929D01*
X056067Y063539D02*
X056382D01*
X056224Y063382D02*
Y063697D01*
X056067Y062539D02*
X056382D01*
X056224Y062382D02*
Y062697D01*
X056067Y061539D02*
X056382D01*
X056224Y061382D02*
Y061697D01*
X056067Y060539D02*
X056382D01*
X056224Y060382D02*
Y060697D01*
X056067Y059539D02*
X056382D01*
X056224Y059382D02*
Y059697D01*
X056067Y058539D02*
X056382D01*
X056224Y058382D02*
Y058697D01*
X056067Y057539D02*
X056382D01*
X056224Y057382D02*
Y057697D01*
X056067Y056539D02*
X056382D01*
X056224Y056382D02*
Y056697D01*
X053067Y059539D02*
X053382D01*
X053224Y059382D02*
Y059697D01*
X053067Y058539D02*
X053382D01*
X053224Y058382D02*
Y058697D01*
X053067Y057539D02*
X053382D01*
X053224Y057382D02*
Y057697D01*
X053067Y056539D02*
X053382D01*
X053224Y056382D02*
Y056697D01*
X053067Y060539D02*
X053382D01*
X053224Y060382D02*
Y060697D01*
X053067Y061539D02*
X053382D01*
X053224Y061382D02*
Y061697D01*
X053067Y062539D02*
X053382D01*
X053224Y062382D02*
Y062697D01*
X053067Y063539D02*
X053382D01*
X053224Y063382D02*
Y063697D01*
X023539Y056343D02*
X023854D01*
X023697Y056185D02*
Y0565D01*
X023539Y057343D02*
X023854D01*
X023697Y057185D02*
Y0575D01*
X023539Y058343D02*
X023854D01*
X023697Y058185D02*
Y0585D01*
X023539Y059343D02*
X023854D01*
X023697Y059185D02*
Y0595D01*
X023539Y060343D02*
X023854D01*
X023697Y060185D02*
Y0605D01*
X023539Y061343D02*
X023854D01*
X023697Y061185D02*
Y0615D01*
X023539Y062343D02*
X023854D01*
X023697Y062185D02*
Y0625D01*
X023539Y063343D02*
X023854D01*
X023697Y063185D02*
Y0635D01*
X026539Y060343D02*
X026854D01*
X026697Y060185D02*
Y0605D01*
X026539Y061343D02*
X026854D01*
X026697Y061185D02*
Y0615D01*
X026539Y062343D02*
X026854D01*
X026697Y062185D02*
Y0625D01*
X026539Y063343D02*
X026854D01*
X026697Y063185D02*
Y0635D01*
X026539Y059343D02*
X026854D01*
X026697Y059185D02*
Y0595D01*
X026539Y058343D02*
X026854D01*
X026697Y058185D02*
Y0585D01*
X026539Y057343D02*
X026854D01*
X026697Y057185D02*
Y0575D01*
X026539Y056343D02*
X026854D01*
X026697Y056185D02*
Y0565D01*
X054567Y046535D02*
X054882D01*
X054724Y046378D02*
Y046693D01*
X054567Y045535D02*
X054882D01*
X054724Y045378D02*
Y045693D01*
X054567Y044535D02*
X054882D01*
X054724Y044378D02*
Y044693D01*
X054567Y043535D02*
X054882D01*
X054724Y043378D02*
Y043693D01*
X054567Y042535D02*
X054882D01*
X054724Y042378D02*
Y042693D01*
X054567Y041535D02*
X054882D01*
X054724Y041378D02*
Y041693D01*
M02*
