G04 Layer_Physical_Order=2*
G04 Layer_Color=16711680*
%FSTAX24Y24*%
%MOIN*%
G70*
G01*
G75*
%ADD10R,0.0709X0.0709*%
%ADD11C,0.0709*%
%ADD12R,0.0984X0.0984*%
%ADD13C,0.0984*%
%ADD14R,0.0709X0.0709*%
%ADD15C,0.0669*%
%ADD16C,0.0197*%
%ADD17C,0.0236*%
%ADD18C,0.0157*%
G36*
X043122Y071415D02*
X041418Y069711D01*
X041373Y069654D01*
X041346Y069587D01*
X041336Y069515D01*
Y052202D01*
X040697Y051563D01*
X040612Y051628D01*
X040488Y05168D01*
X040354Y051697D01*
X040221Y05168D01*
X040096Y051628D01*
X039989Y051546D01*
X039907Y051439D01*
X039856Y051315D01*
X039838Y051181D01*
X039856Y051047D01*
X039907Y050923D01*
X039989Y050816D01*
X040076Y050749D01*
Y049288D01*
X038977Y048189D01*
X038932Y048131D01*
X038905Y048064D01*
X038895Y047992D01*
Y047282D01*
X038808Y047215D01*
X038741Y047128D01*
X035471D01*
X035404Y047215D01*
X035297Y047297D01*
X035173Y047349D01*
X035039Y047367D01*
X034906Y047349D01*
X034781Y047297D01*
X034674Y047215D01*
X034608Y047128D01*
X031337D01*
X031271Y047215D01*
X031164Y047297D01*
X031039Y047349D01*
X030906Y047367D01*
X030772Y047349D01*
X030647Y047297D01*
X03054Y047215D01*
X030474Y047128D01*
X029249D01*
X026598Y04978D01*
Y051003D01*
X026644Y051023D01*
X029069Y048597D01*
X029123Y048556D01*
X029185Y04853D01*
X029252Y048521D01*
X037275D01*
X037341Y04853D01*
X037404Y048556D01*
X037457Y048597D01*
X038676Y049816D01*
X038717Y049869D01*
X038742Y049931D01*
X038751Y049998D01*
Y067326D01*
X038742Y067392D01*
X038717Y067455D01*
X038676Y067508D01*
X036552Y069631D01*
X036499Y069672D01*
X036437Y069698D01*
X03637Y069707D01*
X032755D01*
X032689Y069698D01*
X032626Y069672D01*
X032573Y069631D01*
X031929Y068987D01*
X031795Y069005D01*
X031662Y068987D01*
X031537Y068936D01*
X03143Y068854D01*
X031348Y068747D01*
X031297Y068622D01*
X031279Y068489D01*
X031297Y068355D01*
X031348Y06823D01*
X03143Y068124D01*
X031537Y068042D01*
X031662Y06799D01*
X031795Y067972D01*
X031929Y06799D01*
X032053Y068042D01*
X03216Y068124D01*
X032242Y06823D01*
X032294Y068355D01*
X032311Y068489D01*
X032294Y068622D01*
X032862Y069191D01*
X036263D01*
X038235Y067219D01*
Y050105D01*
X037168Y049038D01*
X029359D01*
X026955Y051442D01*
Y055895D01*
X027062Y055978D01*
X027144Y056084D01*
X027195Y056209D01*
X027213Y056343D01*
X027195Y056476D01*
X027144Y056601D01*
X027062Y056708D01*
X026955Y05679D01*
X026892Y056815D01*
Y05687D01*
X026955Y056895D01*
X027062Y056978D01*
X027078Y056998D01*
X027128Y057002D01*
X027368Y056762D01*
Y053676D01*
X027376Y053609D01*
X027402Y053547D01*
X027443Y053494D01*
X02891Y052027D01*
X028892Y051894D01*
X02891Y05176D01*
X028961Y051636D01*
X029043Y051529D01*
X02915Y051447D01*
X029275Y051395D01*
X029408Y051377D01*
X029542Y051395D01*
X029666Y051447D01*
X029773Y051529D01*
X029855Y051636D01*
X029907Y05176D01*
X029924Y051894D01*
X029907Y052027D01*
X029855Y052152D01*
X029773Y052259D01*
X029666Y052341D01*
X029542Y052392D01*
X029408Y05241D01*
X029275Y052392D01*
X027884Y053783D01*
Y05456D01*
X02793Y054579D01*
X030096Y052413D01*
Y051457D01*
X030105Y05139D01*
X030131Y051328D01*
X030172Y051274D01*
X030684Y050762D01*
X030737Y050721D01*
X030799Y050696D01*
X030866Y050687D01*
X032205D01*
X032272Y050696D01*
X032334Y050721D01*
X032387Y050762D01*
X033011Y051386D01*
X033078Y051377D01*
X033212Y051395D01*
X033336Y051447D01*
X033443Y051529D01*
X033525Y051636D01*
X033577Y05176D01*
X033595Y051894D01*
X033577Y052027D01*
X033525Y052152D01*
X033443Y052259D01*
X033336Y052341D01*
X033212Y052392D01*
X033078Y05241D01*
X032945Y052392D01*
X03282Y052341D01*
X032713Y052259D01*
X032631Y052152D01*
X03258Y052027D01*
X032562Y051894D01*
X03258Y05176D01*
X032602Y051707D01*
X032098Y051203D01*
X030973D01*
X030612Y051564D01*
Y05252D01*
X030604Y052586D01*
X030578Y052649D01*
X030537Y052702D01*
X028938Y054301D01*
X028961Y054348D01*
X028986Y054345D01*
X030644D01*
X031034Y053956D01*
Y052389D01*
X030927Y052307D01*
X030845Y0522D01*
X030793Y052076D01*
X030776Y051942D01*
X030793Y051809D01*
X030845Y051684D01*
X030927Y051577D01*
X031034Y051495D01*
X031158Y051444D01*
X031292Y051426D01*
X031425Y051444D01*
X03155Y051495D01*
X031657Y051577D01*
X031739Y051684D01*
X03179Y051809D01*
X031808Y051942D01*
X03179Y052076D01*
X031739Y0522D01*
X031657Y052307D01*
X03155Y052389D01*
Y054063D01*
X031541Y054129D01*
X031515Y054192D01*
X031474Y054245D01*
X030934Y054786D01*
X03088Y054827D01*
X030818Y054852D01*
X030751Y054861D01*
X029093D01*
X028681Y055273D01*
Y058374D01*
X028673Y058441D01*
X028647Y058503D01*
X028606Y058557D01*
X027638Y059525D01*
X027584Y059566D01*
X027522Y059592D01*
X027455Y059601D01*
X027144D01*
X027062Y059708D01*
X026955Y05979D01*
X026892Y059815D01*
Y05987D01*
X026955Y059895D01*
X027062Y059977D01*
X027144Y060084D01*
X027543D01*
X028951Y058676D01*
X029005Y058635D01*
X029067Y058609D01*
X029134Y0586D01*
X035246D01*
X036036Y05781D01*
Y055679D01*
X033782Y053426D01*
X033741Y053372D01*
X033715Y05331D01*
X033706Y053243D01*
Y050542D01*
X033715Y050475D01*
X033741Y050413D01*
X033782Y05036D01*
X034564Y049578D01*
X034617Y049537D01*
X034679Y049511D01*
X034746Y049503D01*
X036862D01*
X036928Y049511D01*
X036991Y049537D01*
X037044Y049578D01*
X037889Y050423D01*
X03793Y050477D01*
X037956Y050539D01*
X037965Y050606D01*
Y066703D01*
X037956Y06677D01*
X03793Y066832D01*
X037889Y066885D01*
X036103Y068671D01*
X03605Y068712D01*
X035988Y068738D01*
X035921Y068747D01*
X035093D01*
X035011Y068854D01*
X034904Y068936D01*
X034779Y068987D01*
X034646Y069005D01*
X034512Y068987D01*
X034388Y068936D01*
X034281Y068854D01*
X034199Y068747D01*
X034147Y068622D01*
X034129Y068489D01*
X034147Y068355D01*
X034199Y06823D01*
X034281Y068124D01*
X034388Y068042D01*
X034512Y06799D01*
X034646Y067972D01*
X034779Y06799D01*
X034904Y068042D01*
X035011Y068124D01*
X035093Y06823D01*
X035814D01*
X037449Y066596D01*
Y050713D01*
X036755Y050019D01*
X034853D01*
X034223Y050649D01*
Y05186D01*
X034273Y051863D01*
X034289Y051741D01*
X03434Y051616D01*
X034422Y051509D01*
X034529Y051427D01*
X034654Y051376D01*
X034787Y051358D01*
X034921Y051376D01*
X035046Y051427D01*
X035152Y051509D01*
X035234Y051616D01*
X035286Y051741D01*
X035304Y051874D01*
X035286Y052008D01*
X036915Y053637D01*
X036956Y05369D01*
X036982Y053752D01*
X03699Y053819D01*
Y05811D01*
X036982Y058177D01*
X036956Y058239D01*
X036915Y058293D01*
X035673Y059534D01*
X03562Y059575D01*
X035558Y059601D01*
X035491Y05961D01*
X029497D01*
X027582Y061525D01*
X027528Y061566D01*
X027466Y061592D01*
X027399Y061601D01*
X027144D01*
X027062Y061708D01*
X026955Y06179D01*
X026892Y061815D01*
Y06187D01*
X026955Y061895D01*
X027062Y061978D01*
X027144Y062084D01*
X027195Y062209D01*
X027213Y062343D01*
X027195Y062476D01*
X027144Y062601D01*
X027062Y062708D01*
X026955Y06279D01*
X02683Y062841D01*
X026791Y062846D01*
X026791Y062897D01*
X026815Y0629D01*
X026926Y062946D01*
X027021Y063018D01*
X027094Y063113D01*
X027139Y063224D01*
X027149Y063293D01*
X026697D01*
Y063343D01*
D01*
Y063293D01*
X026245D01*
X026254Y063224D01*
X0263Y063113D01*
X026373Y063018D01*
X026468Y062946D01*
X026578Y0629D01*
X026602Y062897D01*
X026602Y062846D01*
X026563Y062841D01*
X026439Y06279D01*
X026332Y062708D01*
X02625Y062601D01*
X026198Y062476D01*
X026181Y062343D01*
X026198Y062209D01*
X02625Y062084D01*
X026332Y061978D01*
X026439Y061895D01*
X026501Y06187D01*
Y061815D01*
X026439Y06179D01*
X026332Y061708D01*
X02625Y061601D01*
X026198Y061476D01*
X026181Y061343D01*
X026198Y061209D01*
X02625Y061084D01*
X026332Y060978D01*
X026439Y060895D01*
X026501Y06087D01*
Y060815D01*
X026439Y06079D01*
X026332Y060708D01*
X02625Y060601D01*
X026198Y060476D01*
X026181Y060343D01*
X026198Y060209D01*
X02625Y060084D01*
X026332Y059977D01*
X026439Y059895D01*
X026501Y05987D01*
Y059815D01*
X026439Y05979D01*
X026332Y059708D01*
X02625Y059601D01*
X026198Y059476D01*
X026181Y059343D01*
X026198Y059209D01*
X02625Y059084D01*
X026332Y058977D01*
X026439Y058895D01*
X026501Y05887D01*
Y058815D01*
X026439Y05879D01*
X026332Y058708D01*
X02625Y058601D01*
X026198Y058476D01*
X026181Y058343D01*
X026198Y058209D01*
X02625Y058084D01*
X026332Y057977D01*
X026439Y057895D01*
X026501Y05787D01*
Y057815D01*
X026439Y05779D01*
X026332Y057708D01*
X02625Y057601D01*
X026198Y057476D01*
X026181Y057343D01*
X026198Y057209D01*
X02625Y057084D01*
X026332Y056978D01*
X026439Y056895D01*
X026501Y05687D01*
Y056815D01*
X026439Y05679D01*
X026332Y056708D01*
X02625Y056601D01*
X026198Y056476D01*
X026181Y056343D01*
X026198Y056209D01*
X02625Y056084D01*
X026332Y055978D01*
X026439Y055895D01*
Y055004D01*
X026393Y054985D01*
X024838Y056539D01*
X024781Y056583D01*
X024714Y056611D01*
X024642Y05662D01*
X024129D01*
X024062Y056708D01*
X023955Y05679D01*
X023892Y056815D01*
Y05687D01*
X023955Y056895D01*
X024062Y056978D01*
X024144Y057084D01*
X024195Y057209D01*
X024213Y057343D01*
X024195Y057476D01*
X024144Y057601D01*
X024062Y057708D01*
X023955Y05779D01*
X023892Y057815D01*
Y05787D01*
X023955Y057895D01*
X024062Y057977D01*
X024144Y058084D01*
X024195Y058209D01*
X024213Y058343D01*
X024195Y058476D01*
X024144Y058601D01*
X024062Y058708D01*
X023955Y05879D01*
X02383Y058841D01*
X023791Y058846D01*
X023791Y058897D01*
X023815Y0589D01*
X023926Y058946D01*
X024021Y059018D01*
X024094Y059113D01*
X024139Y059224D01*
X024149Y059293D01*
X023697D01*
X023245D01*
X023254Y059224D01*
X0233Y059113D01*
X023373Y059018D01*
X023468Y058946D01*
X023578Y0589D01*
X023602Y058897D01*
X023602Y058846D01*
X023563Y058841D01*
X023439Y05879D01*
X023332Y058708D01*
X023265Y05862D01*
X023002D01*
X02293Y058611D01*
X022863Y058583D01*
X022806Y058539D01*
X022361Y058094D01*
X022331Y058107D01*
Y058107D01*
X022102D01*
X022089Y058157D01*
X022184Y05823D01*
X022266Y058337D01*
X022318Y058461D01*
X022335Y058595D01*
X022318Y058728D01*
X022313Y058739D01*
X02346Y059887D01*
X023563Y059844D01*
X023602Y059839D01*
X023602Y059788D01*
X023578Y059785D01*
X023468Y059739D01*
X023373Y059667D01*
X0233Y059572D01*
X023254Y059461D01*
X023245Y059393D01*
X023697D01*
X024149D01*
X024139Y059461D01*
X024094Y059572D01*
X024021Y059667D01*
X023926Y059739D01*
X023815Y059785D01*
X023791Y059788D01*
X023791Y059839D01*
X02383Y059844D01*
X023955Y059895D01*
X024062Y059977D01*
X024144Y060084D01*
X024195Y060209D01*
X024213Y060343D01*
X024195Y060476D01*
X024144Y060601D01*
X024062Y060708D01*
X023955Y06079D01*
X023892Y060815D01*
Y06087D01*
X023955Y060895D01*
X024062Y060978D01*
X024144Y061084D01*
X024195Y061209D01*
X024213Y061343D01*
X024195Y061476D01*
X024144Y061601D01*
X024062Y061708D01*
X023955Y06179D01*
X023892Y061815D01*
Y06187D01*
X023955Y061895D01*
X024062Y061978D01*
X024129Y062065D01*
X024402D01*
X024474Y062074D01*
X024541Y062102D01*
X024598Y062146D01*
X025096Y062644D01*
X02514Y062702D01*
X025168Y062769D01*
X025178Y062841D01*
Y06419D01*
X025442Y064454D01*
X026891D01*
X029917Y061428D01*
X029975Y061384D01*
X030042Y061356D01*
X030114Y061347D01*
X035251D01*
X035323Y061356D01*
X03539Y061384D01*
X035447Y061428D01*
X036957Y062938D01*
X037001Y062996D01*
X037029Y063063D01*
X037039Y063135D01*
Y064953D01*
X037029Y065025D01*
X037001Y065092D01*
X036957Y065149D01*
X034714Y067393D01*
X034656Y067437D01*
X034589Y067465D01*
X034517Y067474D01*
X031497D01*
X0306Y068371D01*
Y069127D01*
X03059Y069199D01*
X030562Y069266D01*
X030518Y069324D01*
X030157Y069685D01*
X0301Y069729D01*
X030033Y069757D01*
X029961Y069766D01*
X023172D01*
X0231Y069757D01*
X023033Y069729D01*
X022975Y069685D01*
X020185Y066894D01*
X02014Y066837D01*
X020113Y06677D01*
X020103Y066698D01*
Y053035D01*
X020113Y052963D01*
X02014Y052896D01*
X020185Y052838D01*
X020682Y052341D01*
X020739Y052297D01*
X020807Y052269D01*
X020878Y052259D01*
X022734D01*
X022806Y052269D01*
X022873Y052297D01*
X022931Y052341D01*
X023851Y053261D01*
X023895Y053319D01*
X023923Y053386D01*
X023932Y053457D01*
Y055886D01*
X023955Y055895D01*
X024062Y055978D01*
X024129Y056065D01*
X024527D01*
X026042Y054549D01*
Y049664D01*
X026051Y049593D01*
X026079Y049525D01*
X026123Y049468D01*
X028417Y047175D01*
X028397Y047128D01*
X024409D01*
X024337Y047119D01*
X02427Y047091D01*
X024213Y047047D01*
X020975Y043809D01*
X020866Y043823D01*
X020733Y043806D01*
X020608Y043754D01*
X020501Y043672D01*
X020419Y043565D01*
X020368Y043441D01*
X02035Y043307D01*
X020368Y043173D01*
X020419Y043049D01*
X020501Y042942D01*
X020588Y042875D01*
Y041126D01*
X020598Y041054D01*
X020625Y040987D01*
X02067Y040929D01*
X021185Y040414D01*
Y039508D01*
X022484D01*
Y040807D01*
X021578D01*
X021144Y041241D01*
Y042875D01*
X021231Y042942D01*
X021313Y043049D01*
X021365Y043173D01*
X021382Y043307D01*
X021368Y043416D01*
X024525Y046572D01*
X030474D01*
X03054Y046485D01*
X030647Y046403D01*
X030772Y046352D01*
X030906Y046334D01*
X031039Y046352D01*
X031164Y046403D01*
X031271Y046485D01*
X031337Y046572D01*
X034608D01*
X034674Y046485D01*
X034781Y046403D01*
X034906Y046352D01*
X035039Y046334D01*
X035173Y046352D01*
X035297Y046403D01*
X035404Y046485D01*
X035471Y046572D01*
X038741D01*
X038808Y046485D01*
X038915Y046403D01*
X03904Y046352D01*
X039173Y046334D01*
X039307Y046352D01*
X039431Y046403D01*
X039538Y046485D01*
X039605Y046572D01*
X043072D01*
X043139Y046485D01*
X043246Y046403D01*
X04337Y046352D01*
X043504Y046334D01*
X043638Y046352D01*
X043762Y046403D01*
X043869Y046485D01*
X043936Y046572D01*
X047403D01*
X04747Y046485D01*
X047577Y046403D01*
X047701Y046352D01*
X047835Y046334D01*
X047968Y046352D01*
X048093Y046403D01*
X0482Y046485D01*
X048282Y046592D01*
X048333Y046717D01*
X048351Y04685D01*
X048333Y046984D01*
X048282Y047108D01*
X0482Y047215D01*
X048093Y047297D01*
X047968Y047349D01*
X047835Y047367D01*
X047701Y047349D01*
X047577Y047297D01*
X04747Y047215D01*
X047403Y047128D01*
X043936D01*
X043869Y047215D01*
X043762Y047297D01*
X043638Y047349D01*
X043504Y047367D01*
X04337Y047349D01*
X043246Y047297D01*
X043139Y047215D01*
X043072Y047128D01*
X039605D01*
X039538Y047215D01*
X039451Y047282D01*
Y047877D01*
X040551Y048977D01*
X040595Y049034D01*
X040623Y049101D01*
X040632Y049173D01*
Y050749D01*
X040719Y050816D01*
X040799Y05092D01*
X040848Y05094D01*
X040905Y050985D01*
X041811Y05189D01*
X041855Y051948D01*
X041883Y052015D01*
X041892Y052087D01*
Y059412D01*
X042989Y060509D01*
X04874D01*
X048812Y060519D01*
X048879Y060547D01*
X048937Y060591D01*
X051653Y063307D01*
X051697Y063365D01*
X051725Y063432D01*
X051735Y063504D01*
Y065433D01*
X051725Y065505D01*
X051697Y065572D01*
X051653Y06563D01*
X050512Y066771D01*
X050454Y066816D01*
X050387Y066843D01*
X050315Y066853D01*
X043699D01*
X043335Y067217D01*
Y068713D01*
X044588Y069967D01*
X044909D01*
X044928Y06992D01*
X044017Y06901D01*
X043961Y069003D01*
X043836Y068951D01*
X043729Y068869D01*
X043647Y068762D01*
X043596Y068638D01*
X043578Y068504D01*
X043596Y06837D01*
X043647Y068246D01*
X043729Y068139D01*
X043836Y068057D01*
X043961Y068005D01*
X044094Y067988D01*
X044228Y068005D01*
X044353Y068057D01*
X04446Y068139D01*
X044542Y068246D01*
X044593Y06837D01*
X044611Y068504D01*
X044593Y068638D01*
X044542Y068762D01*
X044523Y068786D01*
X04535Y069612D01*
X04563D01*
X045649Y069566D01*
X044817Y068734D01*
X044776Y068681D01*
X044751Y068619D01*
X044742Y068552D01*
Y067962D01*
X044751Y067895D01*
X044776Y067833D01*
X044817Y067779D01*
X045456Y06714D01*
X04551Y067099D01*
X045572Y067074D01*
X045639Y067065D01*
X04874D01*
X048807Y067074D01*
X048869Y067099D01*
X048923Y06714D01*
X049395Y067613D01*
X049436Y067666D01*
X049462Y067728D01*
X049471Y067795D01*
Y068057D01*
X049578Y068139D01*
X04966Y068246D01*
X049711Y06837D01*
X049729Y068504D01*
X049711Y068638D01*
X04966Y068762D01*
X049622Y068811D01*
X049644Y068856D01*
X050795D01*
X052966Y066685D01*
Y063986D01*
X052859Y063904D01*
X052777Y063797D01*
X052726Y063673D01*
X052708Y063539D01*
X052726Y063406D01*
X052777Y063281D01*
X052859Y063174D01*
X052966Y063092D01*
X053029Y063066D01*
Y063012D01*
X052966Y062986D01*
X052859Y062904D01*
X052777Y062797D01*
X05275Y062732D01*
X051805D01*
X051738Y062723D01*
X051676Y062698D01*
X051622Y062657D01*
X049066Y060101D01*
X044252D01*
X044185Y060092D01*
X044123Y060066D01*
X044069Y060025D01*
X042337Y058293D01*
X042296Y058239D01*
X04227Y058177D01*
X042262Y05811D01*
Y053937D01*
X04227Y05387D01*
X042296Y053808D01*
X042337Y053755D01*
X04399Y052102D01*
X043972Y051969D01*
X04399Y051835D01*
X044041Y05171D01*
X044123Y051603D01*
X04423Y051521D01*
X044355Y05147D01*
X044488Y051452D01*
X044622Y05147D01*
X044746Y051521D01*
X044853Y051603D01*
X044935Y05171D01*
X044987Y051835D01*
X045004Y051969D01*
X044987Y052102D01*
X044935Y052227D01*
X044853Y052334D01*
X044746Y052416D01*
X044622Y052467D01*
X044488Y052485D01*
X044355Y052467D01*
X042778Y054044D01*
Y058003D01*
X044359Y059584D01*
X049173D01*
X04924Y059593D01*
X049302Y059619D01*
X049356Y05966D01*
X051912Y062216D01*
X052828D01*
X052859Y062174D01*
X052966Y062092D01*
X053029Y062066D01*
Y062012D01*
X052966Y061986D01*
X052859Y061904D01*
X052777Y061797D01*
X05213D01*
X052063Y061789D01*
X052001Y061763D01*
X051947Y061722D01*
X049027Y058801D01*
X044479D01*
X044413Y058793D01*
X04435Y058767D01*
X044297Y058726D01*
X04318Y057609D01*
X043139Y057555D01*
X043113Y057493D01*
X043104Y057426D01*
Y054472D01*
X043113Y054406D01*
X043139Y054343D01*
X04318Y05429D01*
X044699Y05277D01*
X044753Y052729D01*
X044815Y052703D01*
X044882Y052695D01*
X047334D01*
X047927Y052102D01*
X047909Y051969D01*
X047927Y051835D01*
X047978Y05171D01*
X04806Y051603D01*
X048167Y051521D01*
X048292Y05147D01*
X048425Y051452D01*
X048559Y05147D01*
X048683Y051521D01*
X04879Y051603D01*
X048872Y05171D01*
X048924Y051835D01*
X048941Y051969D01*
X048924Y052102D01*
X048872Y052227D01*
X04879Y052334D01*
X048683Y052416D01*
X048559Y052467D01*
X048425Y052485D01*
X048292Y052467D01*
X047623Y053135D01*
X04757Y053176D01*
X047508Y053202D01*
X047441Y053211D01*
X044989D01*
X04362Y054579D01*
Y057319D01*
X044586Y058285D01*
X049134D01*
X049201Y058294D01*
X049263Y05832D01*
X049316Y058361D01*
X052237Y061281D01*
X052777D01*
X052859Y061174D01*
X052966Y061092D01*
X053029Y061066D01*
Y061012D01*
X052966Y060986D01*
X052859Y060904D01*
X052777Y060797D01*
X052508D01*
X052441Y060789D01*
X052379Y060763D01*
X052325Y060722D01*
X051307Y059703D01*
X051266Y05965D01*
X05124Y059587D01*
X051231Y059521D01*
Y054785D01*
X049266Y05282D01*
X049225Y052767D01*
X0492Y052705D01*
X049191Y052638D01*
Y051367D01*
X048948Y051124D01*
X047666D01*
X046955Y051835D01*
X046973Y051969D01*
X046955Y052102D01*
X046904Y052227D01*
X046822Y052334D01*
X046715Y052416D01*
X04659Y052467D01*
X046457Y052485D01*
X046323Y052467D01*
X046199Y052416D01*
X046092Y052334D01*
X04601Y052227D01*
X045958Y052102D01*
X04594Y051969D01*
X045958Y051835D01*
X04601Y05171D01*
X046092Y051603D01*
X046199Y051521D01*
X046323Y05147D01*
X046457Y051452D01*
X04659Y05147D01*
X047377Y050684D01*
X04743Y050643D01*
X047492Y050617D01*
X047559Y050608D01*
X049055D01*
X049122Y050617D01*
X049184Y050643D01*
X049238Y050684D01*
X049631Y051077D01*
X049672Y051131D01*
X049698Y051193D01*
X049707Y05126D01*
Y052531D01*
X051539Y054363D01*
X051585Y054344D01*
Y052462D01*
X05135Y052227D01*
X050841D01*
X050759Y052334D01*
X050652Y052416D01*
X050527Y052467D01*
X050394Y052485D01*
X05026Y052467D01*
X050136Y052416D01*
X050029Y052334D01*
X049947Y052227D01*
X049895Y052102D01*
X049877Y051969D01*
X049895Y051835D01*
X049947Y05171D01*
X050029Y051603D01*
X050136Y051521D01*
X05026Y05147D01*
X050394Y051452D01*
X050527Y05147D01*
X050652Y051521D01*
X050759Y051603D01*
X050841Y05171D01*
X051457D01*
X051523Y051719D01*
X051586Y051745D01*
X051639Y051786D01*
X052026Y052173D01*
X052067Y052226D01*
X052093Y052288D01*
X052102Y052355D01*
Y057829D01*
X052554Y058281D01*
X052777D01*
X052859Y058174D01*
X052966Y058092D01*
X053029Y058066D01*
Y058012D01*
X052966Y057986D01*
X052859Y057904D01*
X052777Y057797D01*
X052726Y057673D01*
X052708Y057539D01*
X052726Y057406D01*
X052777Y057281D01*
X052859Y057174D01*
X052966Y057092D01*
X053091Y057041D01*
X05313Y057036D01*
X05313Y056985D01*
X053106Y056982D01*
X052995Y056936D01*
X0529Y056863D01*
X052828Y056768D01*
X052782Y056658D01*
X052773Y056589D01*
X053676D01*
X053667Y056658D01*
X053621Y056768D01*
X053548Y056863D01*
X053454Y056936D01*
X053343Y056982D01*
X053319Y056985D01*
X053319Y057036D01*
X053358Y057041D01*
X053483Y057092D01*
X053589Y057174D01*
X053671Y057281D01*
X053723Y057406D01*
X053741Y057539D01*
X053723Y057673D01*
X053671Y057797D01*
X053589Y057904D01*
X053483Y057986D01*
X05342Y058012D01*
Y058066D01*
X053483Y058092D01*
X053589Y058174D01*
X053671Y058281D01*
X053723Y058406D01*
X053741Y058539D01*
X053723Y058673D01*
X053671Y058797D01*
X053589Y058904D01*
X053483Y058986D01*
X05342Y059012D01*
Y059066D01*
X053483Y059092D01*
X053589Y059174D01*
X053671Y059281D01*
X053706Y059365D01*
X054377Y060036D01*
X054418Y060089D01*
X054444Y060151D01*
X054453Y060218D01*
Y066709D01*
X054444Y066776D01*
X054418Y066838D01*
X054377Y066892D01*
X051703Y069566D01*
X051722Y069612D01*
X052D01*
X054978Y066634D01*
Y063228D01*
X054987Y063162D01*
X055013Y063099D01*
X055054Y063046D01*
X055743Y062357D01*
X055748Y062353D01*
X055777Y062281D01*
X055859Y062174D01*
X055966Y062092D01*
X056029Y062066D01*
Y062012D01*
X055966Y061986D01*
X055859Y061904D01*
X055777Y061797D01*
X055726Y061673D01*
X055708Y061539D01*
X055726Y061406D01*
X055777Y061281D01*
X055859Y061174D01*
X055966Y061092D01*
X056091Y061041D01*
X05613Y061036D01*
X05613Y060985D01*
X056106Y060982D01*
X055995Y060936D01*
X0559Y060863D01*
X055828Y060768D01*
X055782Y060658D01*
X055773Y060589D01*
X056224D01*
Y060489D01*
X055773D01*
X055782Y060421D01*
X055828Y06031D01*
X0559Y060215D01*
X055995Y060143D01*
X056106Y060097D01*
X05613Y060094D01*
X05613Y060043D01*
X056091Y060038D01*
X055966Y059986D01*
X055859Y059904D01*
X055777Y059797D01*
X055726Y059673D01*
X055708Y059539D01*
X055726Y059406D01*
X055777Y059281D01*
X055859Y059174D01*
X055966Y059092D01*
X056029Y059066D01*
Y059012D01*
X055966Y058986D01*
X055859Y058904D01*
X055777Y058797D01*
X055726Y058673D01*
X055708Y058539D01*
X055726Y058406D01*
X055777Y058281D01*
X055859Y058174D01*
X055966Y058092D01*
X056029Y058066D01*
Y058012D01*
X055966Y057986D01*
X055859Y057904D01*
X055793Y057817D01*
X055492D01*
X05542Y057808D01*
X055353Y05778D01*
X055296Y057736D01*
X054901Y057341D01*
X054857Y057283D01*
X054829Y057216D01*
X054819Y057144D01*
Y054076D01*
X054829Y054004D01*
X054857Y053937D01*
X054901Y053879D01*
X055781Y052999D01*
X055838Y052955D01*
X055905Y052927D01*
X055977Y052918D01*
X058348D01*
X05842Y052927D01*
X058487Y052955D01*
X058544Y052999D01*
X05924Y053695D01*
X059286Y053676D01*
Y037852D01*
X019952D01*
Y071461D01*
X043102D01*
X043122Y071415D01*
D02*
G37*
%LPC*%
G36*
X026747Y063794D02*
Y063393D01*
X027149D01*
X027139Y063461D01*
X027094Y063572D01*
X027021Y063667D01*
X026926Y063739D01*
X026815Y063785D01*
X026747Y063794D01*
D02*
G37*
G36*
X026647D02*
X026578Y063785D01*
X026468Y063739D01*
X026373Y063667D01*
X0263Y063572D01*
X026254Y063461D01*
X026245Y063393D01*
X026647D01*
Y063794D01*
D02*
G37*
G36*
X040972Y062504D02*
X039949D01*
Y062132D01*
X039899Y062122D01*
X039857Y062222D01*
X039785Y062317D01*
X03969Y062389D01*
X039579Y062435D01*
X039511Y062444D01*
Y061993D01*
Y061541D01*
X039579Y06155D01*
X03969Y061596D01*
X039785Y061669D01*
X039857Y061763D01*
X039899Y061863D01*
X039949Y061853D01*
Y061481D01*
X040183D01*
Y058961D01*
X039949D01*
Y058589D01*
X039899Y058579D01*
X039857Y058678D01*
X039785Y058773D01*
X03969Y058846D01*
X039579Y058892D01*
X039511Y058901D01*
Y058449D01*
Y057998D01*
X039579Y058007D01*
X03969Y058052D01*
X039785Y058125D01*
X039857Y05822D01*
X039899Y05832D01*
X039949Y05831D01*
Y057937D01*
X040183D01*
Y055601D01*
X040096Y055565D01*
X039989Y055483D01*
X039907Y055376D01*
X039856Y055252D01*
X039838Y055118D01*
X039856Y054984D01*
X039907Y05486D01*
X039989Y054753D01*
X040096Y054671D01*
X040221Y054619D01*
X040354Y054602D01*
X040488Y054619D01*
X040612Y054671D01*
X040719Y054753D01*
X040801Y05486D01*
X040853Y054984D01*
X040871Y055118D01*
X040853Y055252D01*
X040801Y055376D01*
X040739Y055458D01*
Y057937D01*
X040972D01*
Y058961D01*
X040739D01*
Y061481D01*
X040972D01*
Y062504D01*
D02*
G37*
G36*
X039411Y062444D02*
X039342Y062435D01*
X039232Y062389D01*
X039137Y062317D01*
X039064Y062222D01*
X039018Y062111D01*
X039009Y062043D01*
X039411D01*
Y062444D01*
D02*
G37*
G36*
Y061943D02*
X039009D01*
X039018Y061874D01*
X039064Y061763D01*
X039137Y061669D01*
X039232Y061596D01*
X039342Y06155D01*
X039411Y061541D01*
Y061943D01*
D02*
G37*
G36*
Y058901D02*
X039342Y058892D01*
X039232Y058846D01*
X039137Y058773D01*
X039064Y058678D01*
X039018Y058568D01*
X039009Y058499D01*
X039411D01*
Y058901D01*
D02*
G37*
G36*
Y058399D02*
X039009D01*
X039018Y058331D01*
X039064Y05822D01*
X039137Y058125D01*
X039232Y058052D01*
X039342Y058007D01*
X039411Y057998D01*
Y058399D01*
D02*
G37*
G36*
X049244Y057717D02*
X049116Y0577D01*
X048996Y057651D01*
X048893Y057572D01*
X048814Y057469D01*
X04877Y057362D01*
X04877Y057362D01*
X048719D01*
X048718Y057362D01*
X048674Y057469D01*
X048595Y057572D01*
X048492Y057651D01*
X048373Y0577D01*
X048244Y057717D01*
X048116Y0577D01*
X047996Y057651D01*
X047893Y057572D01*
X047814Y057469D01*
X04777Y057362D01*
X04777Y057362D01*
X047719D01*
X047718Y057362D01*
X047674Y057469D01*
X047595Y057572D01*
X047492Y057651D01*
X047373Y0577D01*
X047244Y057717D01*
X047116Y0577D01*
X046996Y057651D01*
X046893Y057572D01*
X046814Y057469D01*
X04677Y057362D01*
X04677Y057362D01*
X046719D01*
X046718Y057362D01*
X046674Y057469D01*
X046595Y057572D01*
X046492Y057651D01*
X046373Y0577D01*
X046244Y057717D01*
X046116Y0577D01*
X045996Y057651D01*
X045893Y057572D01*
X045814Y057469D01*
X045779Y057384D01*
X045725D01*
X04569Y057469D01*
X045611Y057572D01*
X045508Y057651D01*
X045388Y0577D01*
X04526Y057717D01*
X045131Y0577D01*
X045012Y057651D01*
X044909Y057572D01*
X04483Y057469D01*
X04478Y057349D01*
X044763Y057221D01*
X044779Y057105D01*
X044306Y056632D01*
X044265Y056578D01*
X044239Y056516D01*
X04423Y056449D01*
Y056353D01*
X044123Y056271D01*
X044041Y056164D01*
X04399Y056039D01*
X043972Y055906D01*
X04399Y055772D01*
X044041Y055647D01*
X044123Y05554D01*
X04423Y055458D01*
X044355Y055407D01*
X044488Y055389D01*
X044622Y055407D01*
X044746Y055458D01*
X044853Y05554D01*
X044935Y055647D01*
X044987Y055772D01*
X045004Y055906D01*
X044987Y056039D01*
X044935Y056164D01*
X044853Y056271D01*
X044782Y056325D01*
X044779Y056375D01*
X045144Y05674D01*
X04526Y056725D01*
X045388Y056741D01*
X045508Y056791D01*
X045611Y05687D01*
X04569Y056973D01*
X045725Y057058D01*
X045779D01*
X045814Y056973D01*
X045893Y05687D01*
X045996Y056791D01*
X046116Y056741D01*
X046244Y056725D01*
X046373Y056741D01*
X046492Y056791D01*
X046595Y05687D01*
X046674Y056973D01*
X046718Y05708D01*
X046719Y05708D01*
X04677D01*
X04677Y05708D01*
X046814Y056973D01*
X046893Y05687D01*
X046955Y056822D01*
X046958Y056772D01*
X04659Y056404D01*
X046457Y056422D01*
X046323Y056404D01*
X046199Y056353D01*
X046092Y056271D01*
X04601Y056164D01*
X045958Y056039D01*
X04594Y055906D01*
X045958Y055772D01*
X04601Y055647D01*
X046092Y05554D01*
X046199Y055458D01*
X046323Y055407D01*
X046457Y055389D01*
X04659Y055407D01*
X046715Y055458D01*
X046822Y05554D01*
X046904Y055647D01*
X046955Y055772D01*
X046973Y055906D01*
X046955Y056039D01*
X047427Y05651D01*
X047468Y056564D01*
X047493Y056626D01*
X047502Y056693D01*
Y056799D01*
X047595Y05687D01*
X047674Y056973D01*
X047718Y05708D01*
X047719Y05708D01*
X04777D01*
X04777Y05708D01*
X047814Y056973D01*
X047893Y05687D01*
X047986Y056799D01*
Y056174D01*
X047978Y056164D01*
X047927Y056039D01*
X047909Y055906D01*
X047927Y055772D01*
X047978Y055647D01*
X04806Y05554D01*
X048167Y055458D01*
X048292Y055407D01*
X048425Y055389D01*
X048559Y055407D01*
X048683Y055458D01*
X04879Y05554D01*
X048872Y055647D01*
X048924Y055772D01*
X048941Y055906D01*
X048924Y056039D01*
X048872Y056164D01*
X04879Y056271D01*
X048683Y056353D01*
X048559Y056404D01*
X048502Y056412D01*
Y056799D01*
X048595Y05687D01*
X048674Y056973D01*
X048718Y05708D01*
X048719Y05708D01*
X04877D01*
X04877Y05708D01*
X048814Y056973D01*
X048893Y05687D01*
X048996Y056791D01*
X049116Y056741D01*
X049244Y056725D01*
X04936Y05674D01*
X049944Y056156D01*
X049895Y056039D01*
X049877Y055906D01*
X049895Y055772D01*
X049947Y055647D01*
X050029Y05554D01*
X050136Y055458D01*
X05026Y055407D01*
X050394Y055389D01*
X050527Y055407D01*
X050652Y055458D01*
X050759Y05554D01*
X050841Y055647D01*
X050892Y055772D01*
X05091Y055906D01*
X050892Y056039D01*
X050841Y056164D01*
X050759Y056271D01*
X050652Y056353D01*
X050527Y056404D01*
X05041Y05642D01*
X049725Y057105D01*
X04974Y057221D01*
X049724Y057349D01*
X049674Y057469D01*
X049595Y057572D01*
X049492Y057651D01*
X049373Y0577D01*
X049244Y057717D01*
D02*
G37*
G36*
X035194Y05771D02*
X035065Y057693D01*
X034946Y057644D01*
X034843Y057565D01*
X034764Y057462D01*
X034719Y057355D01*
X034719Y057355D01*
X034668D01*
X034668Y057355D01*
X034624Y057462D01*
X034545Y057565D01*
X034442Y057644D01*
X034322Y057693D01*
X034194Y05771D01*
X034065Y057693D01*
X033946Y057644D01*
X033843Y057565D01*
X033764Y057462D01*
X033719Y057355D01*
X033719Y057355D01*
X033668D01*
X033668Y057355D01*
X033624Y057462D01*
X033545Y057565D01*
X033442Y057644D01*
X033322Y057693D01*
X033194Y05771D01*
X033065Y057693D01*
X032946Y057644D01*
X032843Y057565D01*
X032764Y057462D01*
X032719Y057355D01*
X032719Y057355D01*
X032668D01*
X032668Y057355D01*
X032624Y057462D01*
X032545Y057565D01*
X032442Y057644D01*
X032322Y057693D01*
X032194Y05771D01*
X032065Y057693D01*
X031946Y057644D01*
X031843Y057565D01*
X031764Y057462D01*
X031729Y057377D01*
X031675D01*
X031639Y057462D01*
X03156Y057565D01*
X031458Y057644D01*
X031338Y057693D01*
X031209Y05771D01*
X031081Y057693D01*
X030961Y057644D01*
X030858Y057565D01*
X030787Y057472D01*
X030686D01*
X030619Y057463D01*
X030557Y057437D01*
X030503Y057396D01*
X029449Y056342D01*
X029408Y056347D01*
X029275Y056329D01*
X02915Y056278D01*
X029043Y056196D01*
X028961Y056089D01*
X02891Y055964D01*
X028892Y055831D01*
X02891Y055697D01*
X028961Y055573D01*
X029043Y055466D01*
X02915Y055384D01*
X029275Y055332D01*
X029408Y055314D01*
X029542Y055332D01*
X029666Y055384D01*
X029773Y055466D01*
X029855Y055573D01*
X029907Y055697D01*
X029924Y055831D01*
X029907Y055964D01*
X029876Y056039D01*
X030763Y056926D01*
X030813Y056922D01*
X030858Y056863D01*
X030961Y056784D01*
X031081Y056734D01*
X031209Y056717D01*
X031338Y056734D01*
X031458Y056784D01*
X03156Y056863D01*
X031639Y056966D01*
X031675Y057051D01*
X031729D01*
X031764Y056966D01*
X031843Y056863D01*
X031946Y056784D01*
X032065Y056734D01*
X03209Y056731D01*
X032106Y056684D01*
X031666Y056244D01*
X031657Y056244D01*
X03155Y056326D01*
X031425Y056378D01*
X031292Y056395D01*
X031158Y056378D01*
X031034Y056326D01*
X030927Y056244D01*
X030845Y056137D01*
X030793Y056013D01*
X030776Y055879D01*
X030793Y055746D01*
X030845Y055621D01*
X030927Y055514D01*
X031034Y055432D01*
X031158Y055381D01*
X031292Y055363D01*
X031425Y055381D01*
X03155Y055432D01*
X031657Y055514D01*
X031739Y055621D01*
X031744Y055634D01*
X031796Y055656D01*
X031849Y055697D01*
X032453Y056301D01*
X032539D01*
X032606Y05631D01*
X032668Y056336D01*
X032721Y056377D01*
X033078Y056733D01*
X033194Y056717D01*
X033322Y056734D01*
X033442Y056784D01*
X033545Y056863D01*
X033624Y056966D01*
X033668Y057073D01*
X033668Y057073D01*
X033719D01*
X033719Y057073D01*
X033764Y056966D01*
X033843Y056863D01*
X033941Y056788D01*
Y05669D01*
X033447Y056196D01*
X033443Y056196D01*
X033336Y056278D01*
X033212Y056329D01*
X033078Y056347D01*
X032945Y056329D01*
X03282Y056278D01*
X032713Y056196D01*
X032631Y056089D01*
X03258Y055964D01*
X032562Y055831D01*
X03258Y055697D01*
X032631Y055573D01*
X032713Y055466D01*
X03282Y055384D01*
X032945Y055332D01*
X033078Y055314D01*
X033212Y055332D01*
X033336Y055384D01*
X033443Y055466D01*
X033525Y055573D01*
X033532Y055589D01*
X033576Y055607D01*
X033629Y055648D01*
X034381Y0564D01*
X034422Y056454D01*
X034448Y056516D01*
X034457Y056583D01*
Y056795D01*
X034545Y056863D01*
X034624Y056966D01*
X034668Y057073D01*
X034668Y057073D01*
X034719D01*
X034719Y057073D01*
X034764Y056966D01*
X034843Y056863D01*
X034937Y056791D01*
Y056354D01*
X034892Y056314D01*
X034787Y056328D01*
X034654Y05631D01*
X034529Y056258D01*
X034422Y056176D01*
X03434Y05607D01*
X034289Y055945D01*
X034271Y055811D01*
X034289Y055678D01*
X03434Y055553D01*
X034422Y055446D01*
X034529Y055364D01*
X034654Y055313D01*
X034787Y055295D01*
X034921Y055313D01*
X035046Y055364D01*
X035152Y055446D01*
X035234Y055553D01*
X035286Y055678D01*
X035304Y055811D01*
X035286Y055945D01*
X035377Y056036D01*
X035418Y05609D01*
X035444Y056152D01*
X035453Y056219D01*
Y056792D01*
X035545Y056863D01*
X035624Y056966D01*
X035673Y057085D01*
X03569Y057214D01*
X035673Y057342D01*
X035624Y057462D01*
X035545Y057565D01*
X035442Y057644D01*
X035322Y057693D01*
X035194Y05771D01*
D02*
G37*
G36*
X053676Y056489D02*
X053274D01*
Y056088D01*
X053343Y056097D01*
X053454Y056143D01*
X053548Y056215D01*
X053621Y05631D01*
X053667Y056421D01*
X053676Y056489D01*
D02*
G37*
G36*
X053174D02*
X052773D01*
X052782Y056421D01*
X052828Y05631D01*
X0529Y056215D01*
X052995Y056143D01*
X053106Y056097D01*
X053174Y056088D01*
Y056489D01*
D02*
G37*
G36*
X055668Y052223D02*
Y051822D01*
X05607D01*
X056061Y05189D01*
X056015Y052001D01*
X055942Y052096D01*
X055847Y052169D01*
X055737Y052214D01*
X055668Y052223D01*
D02*
G37*
G36*
X025306Y054662D02*
X025172Y054645D01*
X025047Y054593D01*
X02494Y054511D01*
X024858Y054404D01*
X024807Y05428D01*
X024789Y054146D01*
X024807Y054012D01*
X024858Y053888D01*
X02494Y053781D01*
X025013Y053726D01*
Y05265D01*
X024019Y051656D01*
X023217D01*
Y05189D01*
X022193D01*
Y051517D01*
X022143Y051507D01*
X022102Y051607D01*
X022029Y051702D01*
X021934Y051775D01*
X021823Y051821D01*
X021755Y05183D01*
Y051378D01*
Y050926D01*
X021823Y050935D01*
X021934Y050981D01*
X022029Y051054D01*
X022102Y051149D01*
X022143Y051249D01*
X022193Y051239D01*
Y050866D01*
X023217D01*
Y0511D01*
X024134D01*
X024206Y051109D01*
X024273Y051137D01*
X02433Y051181D01*
X025487Y052338D01*
X025531Y052396D01*
X025559Y052463D01*
X025569Y052535D01*
Y053703D01*
X025671Y053781D01*
X025753Y053888D01*
X025804Y054012D01*
X025822Y054146D01*
X025804Y05428D01*
X025753Y054404D01*
X025671Y054511D01*
X025564Y054593D01*
X025439Y054645D01*
X025306Y054662D01*
D02*
G37*
G36*
X021655Y05183D02*
X021586Y051821D01*
X021476Y051775D01*
X021381Y051702D01*
X021308Y051607D01*
X021262Y051497D01*
X021253Y051428D01*
X021655D01*
Y05183D01*
D02*
G37*
G36*
X05607Y051722D02*
X055668D01*
Y05132D01*
X055737Y051329D01*
X055847Y051375D01*
X055942Y051448D01*
X056015Y051543D01*
X056061Y051653D01*
X05607Y051722D01*
D02*
G37*
G36*
X05374Y055044D02*
X053607Y055026D01*
X053482Y054975D01*
X053375Y054893D01*
X053293Y054786D01*
X053242Y054661D01*
X053224Y054528D01*
X053242Y054394D01*
X053293Y054269D01*
X053375Y054163D01*
X053462Y054096D01*
Y05265D01*
X053472Y052578D01*
X053499Y052511D01*
X053544Y052453D01*
X054106Y05189D01*
Y05126D01*
X05513D01*
Y051632D01*
X05518Y051642D01*
X055221Y051543D01*
X055294Y051448D01*
X055389Y051375D01*
X0555Y051329D01*
X055568Y05132D01*
Y051772D01*
Y052223D01*
X0555Y052214D01*
X055389Y052169D01*
X055294Y052096D01*
X055221Y052001D01*
X05518Y051901D01*
X05513Y051911D01*
Y052283D01*
X054499D01*
X054018Y052765D01*
Y054096D01*
X054105Y054163D01*
X054187Y054269D01*
X054239Y054394D01*
X054256Y054528D01*
X054239Y054661D01*
X054187Y054786D01*
X054105Y054893D01*
X053998Y054975D01*
X053874Y055026D01*
X05374Y055044D01*
D02*
G37*
G36*
X021655Y051328D02*
X021253D01*
X021262Y051259D01*
X021308Y051149D01*
X021381Y051054D01*
X021476Y050981D01*
X021586Y050935D01*
X021655Y050926D01*
Y051328D01*
D02*
G37*
G36*
X055236Y047047D02*
X054213D01*
Y046794D01*
X054016D01*
X053949Y046785D01*
X053887Y046759D01*
X053833Y046718D01*
X053101Y045986D01*
X031752D01*
X031685Y045977D01*
X031623Y045951D01*
X031569Y04591D01*
X030723Y045064D01*
X030682Y045011D01*
X030656Y044949D01*
X030647Y044882D01*
Y04336D01*
X03054Y043278D01*
X030458Y043172D01*
X030407Y043047D01*
X030389Y042913D01*
X030407Y04278D01*
X030458Y042655D01*
X03054Y042548D01*
X030647Y042466D01*
Y041392D01*
X03054Y04131D01*
X030458Y041203D01*
X030407Y041078D01*
X030389Y040945D01*
X030407Y040811D01*
X030458Y040687D01*
X03054Y04058D01*
X030647Y040498D01*
X030772Y040446D01*
X030906Y040429D01*
X031039Y040446D01*
X031164Y040498D01*
X031271Y04058D01*
X031353Y040687D01*
X031404Y040811D01*
X031422Y040945D01*
X031404Y041078D01*
X031353Y041203D01*
X031271Y04131D01*
X031164Y041392D01*
Y042466D01*
X031271Y042548D01*
X031353Y042655D01*
X031404Y04278D01*
X031422Y042913D01*
X031404Y043047D01*
X031353Y043172D01*
X031271Y043278D01*
X031164Y04336D01*
Y044775D01*
X031858Y04547D01*
X03658D01*
X036597Y04542D01*
X036567Y045397D01*
X034857Y043686D01*
X034816Y043633D01*
X03479Y043571D01*
X034781Y043504D01*
Y04336D01*
X034674Y043278D01*
X034592Y043172D01*
X034541Y043047D01*
X034523Y042913D01*
X034541Y04278D01*
X034592Y042655D01*
X034674Y042548D01*
X034781Y042466D01*
Y041392D01*
X034674Y04131D01*
X034592Y041203D01*
X034541Y041078D01*
X034523Y040945D01*
X034541Y040811D01*
X034592Y040687D01*
X034674Y04058D01*
X034781Y040498D01*
X034906Y040446D01*
X035039Y040429D01*
X035173Y040446D01*
X035297Y040498D01*
X035404Y04058D01*
X035486Y040687D01*
X035538Y040811D01*
X035556Y040945D01*
X035538Y041078D01*
X035486Y041203D01*
X035404Y04131D01*
X035297Y041392D01*
Y042466D01*
X035404Y042548D01*
X035486Y042655D01*
X035538Y04278D01*
X035556Y042913D01*
X035538Y043047D01*
X035486Y043172D01*
X035404Y043278D01*
X035309Y043352D01*
X035306Y043406D01*
X036857Y044956D01*
X040555D01*
X040572Y044906D01*
X040541Y044883D01*
X039075Y043417D01*
X03904Y043412D01*
X038915Y04336D01*
X038808Y043278D01*
X038726Y043172D01*
X038675Y043047D01*
X038657Y042913D01*
X038675Y04278D01*
X038726Y042655D01*
X038808Y042548D01*
X038915Y042466D01*
Y041392D01*
X038808Y04131D01*
X038726Y041203D01*
X038675Y041078D01*
X038657Y040945D01*
X038675Y040811D01*
X038726Y040687D01*
X038808Y04058D01*
X038915Y040498D01*
X03904Y040446D01*
X039173Y040429D01*
X039307Y040446D01*
X039431Y040498D01*
X039538Y04058D01*
X03962Y040687D01*
X039672Y040811D01*
X039689Y040945D01*
X039672Y041078D01*
X03962Y041203D01*
X039538Y04131D01*
X039431Y041392D01*
Y042466D01*
X039538Y042548D01*
X03962Y042655D01*
X039672Y04278D01*
X039689Y042913D01*
X039672Y043047D01*
X03962Y043172D01*
X039594Y043206D01*
X040831Y044442D01*
X044603D01*
X044617Y044392D01*
X043638Y043412D01*
X043504Y04343D01*
X04337Y043412D01*
X043246Y04336D01*
X043139Y043278D01*
X043057Y043172D01*
X043005Y043047D01*
X042988Y042913D01*
X043005Y04278D01*
X043057Y042655D01*
X043139Y042548D01*
X043246Y042466D01*
Y041392D01*
X043139Y04131D01*
X043057Y041203D01*
X043005Y041078D01*
X042988Y040945D01*
X043005Y040811D01*
X043057Y040687D01*
X043139Y04058D01*
X043246Y040498D01*
X04337Y040446D01*
X043504Y040429D01*
X043638Y040446D01*
X043762Y040498D01*
X043869Y04058D01*
X043951Y040687D01*
X044003Y040811D01*
X04402Y040945D01*
X044003Y041078D01*
X043951Y041203D01*
X043869Y04131D01*
X043762Y041392D01*
Y042466D01*
X043869Y042548D01*
X043951Y042655D01*
X044003Y04278D01*
X04402Y042913D01*
X044003Y043047D01*
X044917Y043961D01*
X048457D01*
X048474Y043911D01*
X048446Y04389D01*
X047968Y043412D01*
X047835Y04343D01*
X047701Y043412D01*
X047577Y04336D01*
X04747Y043278D01*
X047388Y043172D01*
X047336Y043047D01*
X047318Y042913D01*
X047336Y04278D01*
X047388Y042655D01*
X04747Y042548D01*
X047577Y042466D01*
Y041392D01*
X04747Y04131D01*
X047388Y041203D01*
X047336Y041078D01*
X047318Y040945D01*
X047336Y040811D01*
X047388Y040687D01*
X04747Y04058D01*
X047577Y040498D01*
X047701Y040446D01*
X047835Y040429D01*
X047968Y040446D01*
X048093Y040498D01*
X0482Y04058D01*
X048282Y040687D01*
X048333Y040811D01*
X048351Y040945D01*
X048333Y041078D01*
X048282Y041203D01*
X0482Y04131D01*
X048093Y041392D01*
Y042466D01*
X0482Y042548D01*
X048282Y042655D01*
X048333Y04278D01*
X048351Y042913D01*
X048333Y043047D01*
X048736Y043449D01*
X051794D01*
X051804Y043399D01*
X05171Y04336D01*
X051603Y043278D01*
X051521Y043172D01*
X05147Y043047D01*
X051452Y042913D01*
X05147Y04278D01*
X051521Y042655D01*
X051603Y042548D01*
X05171Y042466D01*
X051835Y042415D01*
X051968Y042397D01*
X052102Y042415D01*
X052227Y042466D01*
X052334Y042548D01*
X0524Y042635D01*
X052838D01*
X054134Y041339D01*
X054192Y041295D01*
X054259Y041267D01*
X054288Y041263D01*
X054359Y04117D01*
X054466Y041088D01*
X054591Y041037D01*
X054724Y041019D01*
X054858Y041037D01*
X054983Y041088D01*
X055089Y04117D01*
X055171Y041277D01*
X055223Y041402D01*
X055241Y041535D01*
X055223Y041669D01*
X055171Y041794D01*
X055089Y0419D01*
X054983Y041982D01*
X05492Y042008D01*
Y042062D01*
X054983Y042088D01*
X055089Y04217D01*
X055171Y042277D01*
X055223Y042402D01*
X055241Y042535D01*
X055223Y042669D01*
X055171Y042794D01*
X055089Y0429D01*
X054983Y042983D01*
X05492Y043008D01*
Y043062D01*
X054983Y043088D01*
X055089Y04317D01*
X055171Y043277D01*
X055223Y043402D01*
X055241Y043535D01*
X055223Y043669D01*
X055171Y043794D01*
X055089Y0439D01*
X054983Y043983D01*
X05492Y044008D01*
Y044062D01*
X054983Y044088D01*
X055089Y04417D01*
X055171Y044277D01*
X055223Y044402D01*
X055241Y044535D01*
X055223Y044669D01*
X055171Y044794D01*
X055089Y0449D01*
X054983Y044983D01*
X05492Y045008D01*
Y045062D01*
X054983Y045088D01*
X055089Y04517D01*
X055171Y045277D01*
X055223Y045402D01*
X055241Y045535D01*
X055223Y045669D01*
X055171Y045794D01*
X055089Y0459D01*
X054994Y045974D01*
X055008Y046024D01*
X055236D01*
Y047047D01*
D02*
G37*
G36*
X045916Y041397D02*
Y040995D01*
X046318D01*
X046309Y041063D01*
X046263Y041174D01*
X04619Y041269D01*
X046095Y041342D01*
X045985Y041388D01*
X045916Y041397D01*
D02*
G37*
G36*
X045816D02*
X045748Y041388D01*
X045637Y041342D01*
X045542Y041269D01*
X045469Y041174D01*
X045424Y041063D01*
X045414Y040995D01*
X045816D01*
Y041397D01*
D02*
G37*
G36*
X041585D02*
Y040995D01*
X041987D01*
X041978Y041063D01*
X041932Y041174D01*
X041859Y041269D01*
X041765Y041342D01*
X041654Y041388D01*
X041585Y041397D01*
D02*
G37*
G36*
X041485D02*
X041417Y041388D01*
X041306Y041342D01*
X041211Y041269D01*
X041139Y041174D01*
X041093Y041063D01*
X041084Y040995D01*
X041485D01*
Y041397D01*
D02*
G37*
G36*
X037255D02*
Y040995D01*
X037656D01*
X037647Y041063D01*
X037602Y041174D01*
X037529Y041269D01*
X037434Y041342D01*
X037323Y041388D01*
X037255Y041397D01*
D02*
G37*
G36*
X037155D02*
X037086Y041388D01*
X036976Y041342D01*
X036881Y041269D01*
X036808Y041174D01*
X036762Y041063D01*
X036753Y040995D01*
X037155D01*
Y041397D01*
D02*
G37*
G36*
X033121D02*
Y040995D01*
X033523D01*
X033514Y041063D01*
X033468Y041174D01*
X033395Y041269D01*
X0333Y041342D01*
X033189Y041388D01*
X033121Y041397D01*
D02*
G37*
G36*
X033021D02*
X032952Y041388D01*
X032842Y041342D01*
X032747Y041269D01*
X032674Y041174D01*
X032628Y041063D01*
X032619Y040995D01*
X033021D01*
Y041397D01*
D02*
G37*
G36*
X028987D02*
Y040995D01*
X029389D01*
X02938Y041063D01*
X029334Y041174D01*
X029261Y041269D01*
X029166Y041342D01*
X029056Y041388D01*
X028987Y041397D01*
D02*
G37*
G36*
X028887D02*
X028818Y041388D01*
X028708Y041342D01*
X028613Y041269D01*
X02854Y041174D01*
X028494Y041063D01*
X028485Y040995D01*
X028887D01*
Y041397D01*
D02*
G37*
G36*
X050828Y041397D02*
X050759Y041388D01*
X050649Y041342D01*
X050554Y041269D01*
X050481Y041174D01*
X050435Y041063D01*
X050426Y040995D01*
X050828D01*
Y041397D01*
D02*
G37*
G36*
X046318Y040895D02*
X045916D01*
Y040493D01*
X045985Y040502D01*
X046095Y040548D01*
X04619Y040621D01*
X046263Y040716D01*
X046309Y040826D01*
X046318Y040895D01*
D02*
G37*
G36*
X045816D02*
X045414D01*
X045424Y040826D01*
X045469Y040716D01*
X045542Y040621D01*
X045637Y040548D01*
X045748Y040502D01*
X045816Y040493D01*
Y040895D01*
D02*
G37*
G36*
X041987D02*
X041585D01*
Y040493D01*
X041654Y040502D01*
X041765Y040548D01*
X041859Y040621D01*
X041932Y040716D01*
X041978Y040826D01*
X041987Y040895D01*
D02*
G37*
G36*
X041485D02*
X041084D01*
X041093Y040826D01*
X041139Y040716D01*
X041211Y040621D01*
X041306Y040548D01*
X041417Y040502D01*
X041485Y040493D01*
Y040895D01*
D02*
G37*
G36*
X037656D02*
X037255D01*
Y040493D01*
X037323Y040502D01*
X037434Y040548D01*
X037529Y040621D01*
X037602Y040716D01*
X037647Y040826D01*
X037656Y040895D01*
D02*
G37*
G36*
X037155D02*
X036753D01*
X036762Y040826D01*
X036808Y040716D01*
X036881Y040621D01*
X036976Y040548D01*
X037086Y040502D01*
X037155Y040493D01*
Y040895D01*
D02*
G37*
G36*
X033523D02*
X033121D01*
Y040493D01*
X033189Y040502D01*
X0333Y040548D01*
X033395Y040621D01*
X033468Y040716D01*
X033514Y040826D01*
X033523Y040895D01*
D02*
G37*
G36*
X033021D02*
X032619D01*
X032628Y040826D01*
X032674Y040716D01*
X032747Y040621D01*
X032842Y040548D01*
X032952Y040502D01*
X033021Y040493D01*
Y040895D01*
D02*
G37*
G36*
X029389D02*
X028987D01*
Y040493D01*
X029056Y040502D01*
X029166Y040548D01*
X029261Y040621D01*
X029334Y040716D01*
X02938Y040826D01*
X029389Y040895D01*
D02*
G37*
G36*
X028887D02*
X028485D01*
X028494Y040826D01*
X02854Y040716D01*
X028613Y040621D01*
X028708Y040548D01*
X028818Y040502D01*
X028887Y040493D01*
Y040895D01*
D02*
G37*
G36*
X050828Y040895D02*
X050426D01*
X050435Y040826D01*
X050481Y040716D01*
X050554Y040621D01*
X050649Y040548D01*
X050759Y040502D01*
X050828Y040493D01*
Y040895D01*
D02*
G37*
G36*
X056024Y048861D02*
X052992D01*
X05292Y048851D01*
X052853Y048823D01*
X052796Y048779D01*
X051772Y047756D01*
X051728Y047698D01*
X0517Y047631D01*
X051691Y047559D01*
Y047282D01*
X051603Y047215D01*
X051521Y047108D01*
X05147Y046984D01*
X051452Y04685D01*
X05147Y046717D01*
X051521Y046592D01*
X051603Y046485D01*
X05171Y046403D01*
X051835Y046352D01*
X051968Y046334D01*
X052102Y046352D01*
X052227Y046403D01*
X052334Y046485D01*
X052416Y046592D01*
X052467Y046717D01*
X052485Y04685D01*
X052467Y046984D01*
X052416Y047108D01*
X052334Y047215D01*
X052246Y047282D01*
Y047444D01*
X053107Y048305D01*
X055908D01*
X056336Y047877D01*
Y040824D01*
X055908Y040396D01*
X05282D01*
X05239Y040826D01*
Y041457D01*
X051366D01*
Y041084D01*
X051316Y041074D01*
X051275Y041174D01*
X051202Y041269D01*
X051107Y041342D01*
X050997Y041388D01*
X050928Y041397D01*
Y040945D01*
Y040493D01*
X050997Y040502D01*
X051107Y040548D01*
X051202Y040621D01*
X051275Y040716D01*
X051316Y040816D01*
X051366Y040806D01*
Y040433D01*
X051997D01*
X052508Y039922D01*
X052566Y039877D01*
X052633Y03985D01*
X052705Y03984D01*
X056024D01*
X056096Y03985D01*
X056163Y039877D01*
X05622Y039922D01*
X056811Y040512D01*
X056855Y04057D01*
X056883Y040637D01*
X056892Y040709D01*
Y047992D01*
X056883Y048064D01*
X056855Y048131D01*
X056811Y048189D01*
X05622Y048779D01*
X056163Y048823D01*
X056096Y048851D01*
X056024Y048861D01*
D02*
G37*
G36*
X023885Y040748D02*
Y040207D01*
X024425D01*
X024418Y040274D01*
X024384Y040385D01*
X024329Y040488D01*
X024255Y040578D01*
X024165Y040652D01*
X024062Y040707D01*
X023951Y040741D01*
X023885Y040748D01*
D02*
G37*
G36*
X023785D02*
X023719Y040741D01*
X023607Y040707D01*
X023504Y040652D01*
X023414Y040578D01*
X02334Y040488D01*
X023285Y040385D01*
X023251Y040274D01*
X023245Y040207D01*
X023785D01*
Y040748D01*
D02*
G37*
G36*
X024425Y040107D02*
X023885D01*
Y039567D01*
X023951Y039574D01*
X024062Y039608D01*
X024165Y039663D01*
X024255Y039737D01*
X024329Y039827D01*
X024384Y03993D01*
X024418Y040041D01*
X024425Y040107D01*
D02*
G37*
G36*
X023785D02*
X023245D01*
X023251Y040041D01*
X023285Y03993D01*
X02334Y039827D01*
X023414Y039737D01*
X023504Y039663D01*
X023607Y039608D01*
X023719Y039574D01*
X023785Y039567D01*
Y040107D01*
D02*
G37*
G36*
X024803Y043823D02*
X02467Y043806D01*
X024545Y043754D01*
X024438Y043672D01*
X024356Y043565D01*
X024305Y043441D01*
X024287Y043307D01*
X024305Y043173D01*
X024356Y043049D01*
X024438Y042942D01*
X024545Y04286D01*
X02467Y042808D01*
X024803Y042791D01*
X024912Y042805D01*
X0261Y041617D01*
Y040382D01*
X025866D01*
Y039358D01*
X026239D01*
X026249Y039308D01*
X026149Y039267D01*
X026054Y039194D01*
X025981Y039099D01*
X025935Y038989D01*
X025926Y03892D01*
X026378D01*
X02683D01*
X026821Y038989D01*
X026775Y039099D01*
X026702Y039194D01*
X026607Y039267D01*
X026507Y039308D01*
X026517Y039358D01*
X02689D01*
Y040382D01*
X026656D01*
Y041732D01*
X026646Y041804D01*
X026619Y041871D01*
X026575Y041929D01*
X025305Y043198D01*
X025319Y043307D01*
X025302Y043441D01*
X02525Y043565D01*
X025168Y043672D01*
X025061Y043754D01*
X024937Y043806D01*
X024803Y043823D01*
D02*
G37*
G36*
X026328Y03882D02*
X025926D01*
X025935Y038751D01*
X025981Y038641D01*
X026054Y038546D01*
X026149Y038473D01*
X026259Y038427D01*
X026328Y038418D01*
Y03882D01*
D02*
G37*
G36*
X02683D02*
X026428D01*
Y038418D01*
X026497Y038427D01*
X026607Y038473D01*
X026702Y038546D01*
X026775Y038641D01*
X026821Y038751D01*
X02683Y03882D01*
D02*
G37*
%LPD*%
D10*
X057786Y062351D02*
D03*
X021819Y057595D02*
D03*
X026378Y03987D02*
D03*
X054724Y046535D02*
D03*
D11*
X057786Y061351D02*
D03*
Y060351D02*
D03*
Y059351D02*
D03*
Y058351D02*
D03*
Y057351D02*
D03*
X021819Y058595D02*
D03*
Y059595D02*
D03*
Y060595D02*
D03*
Y061595D02*
D03*
Y062595D02*
D03*
X049213Y068504D02*
D03*
Y064567D02*
D03*
X046063Y068504D02*
D03*
Y064567D02*
D03*
X044094Y068504D02*
D03*
Y064567D02*
D03*
X050394Y051969D02*
D03*
Y055906D02*
D03*
X048425Y051969D02*
D03*
Y055906D02*
D03*
X046457Y051969D02*
D03*
Y055906D02*
D03*
X044488Y051969D02*
D03*
Y055906D02*
D03*
X034646Y068489D02*
D03*
Y064552D02*
D03*
X031795Y068489D02*
D03*
Y064552D02*
D03*
X029134Y068543D02*
D03*
Y064606D02*
D03*
X034787Y051874D02*
D03*
Y055811D02*
D03*
X033078Y051894D02*
D03*
Y055831D02*
D03*
X031292Y051942D02*
D03*
Y055879D02*
D03*
X029408Y051894D02*
D03*
Y055831D02*
D03*
X050878Y040945D02*
D03*
X051968Y04685D02*
D03*
Y042913D02*
D03*
X047835Y04685D02*
D03*
Y042913D02*
D03*
X043504Y04685D02*
D03*
Y042913D02*
D03*
X039173Y04685D02*
D03*
Y042913D02*
D03*
X035039Y04685D02*
D03*
Y042913D02*
D03*
X030906Y04685D02*
D03*
Y042913D02*
D03*
X020866Y043307D02*
D03*
X024803D02*
D03*
X047835Y040945D02*
D03*
X045866D02*
D03*
X043504D02*
D03*
X041535D02*
D03*
X039173D02*
D03*
X037205D02*
D03*
X035039D02*
D03*
X033071D02*
D03*
X030906D02*
D03*
X028937D02*
D03*
X026378Y03887D02*
D03*
X040354Y051181D02*
D03*
Y055118D02*
D03*
X045244Y063221D02*
D03*
X046244D02*
D03*
X047244D02*
D03*
X048244D02*
D03*
X049244D02*
D03*
X031194Y063214D02*
D03*
X032194D02*
D03*
X033194D02*
D03*
X034194D02*
D03*
X035194D02*
D03*
X039461Y061993D02*
D03*
Y058449D02*
D03*
X021369Y054146D02*
D03*
X025306D02*
D03*
X057677Y054528D02*
D03*
X05374D02*
D03*
X021705Y051378D02*
D03*
X055618Y051772D02*
D03*
X056224Y063539D02*
D03*
Y062539D02*
D03*
Y061539D02*
D03*
Y060539D02*
D03*
Y059539D02*
D03*
Y058539D02*
D03*
Y057539D02*
D03*
Y056539D02*
D03*
X053224Y059539D02*
D03*
Y058539D02*
D03*
Y057539D02*
D03*
Y056539D02*
D03*
Y060539D02*
D03*
Y061539D02*
D03*
Y062539D02*
D03*
Y063539D02*
D03*
X023697Y056343D02*
D03*
Y057343D02*
D03*
Y058343D02*
D03*
Y059343D02*
D03*
Y060343D02*
D03*
Y061343D02*
D03*
Y062343D02*
D03*
Y063343D02*
D03*
X026697Y060343D02*
D03*
Y061343D02*
D03*
Y062343D02*
D03*
Y063343D02*
D03*
Y059343D02*
D03*
Y058343D02*
D03*
Y057343D02*
D03*
Y056343D02*
D03*
X054724Y045535D02*
D03*
Y044535D02*
D03*
Y043535D02*
D03*
Y042535D02*
D03*
Y041535D02*
D03*
D12*
X021835Y040157D02*
D03*
D13*
X023835D02*
D03*
D14*
X051878Y040945D02*
D03*
X040461Y061993D02*
D03*
Y058449D02*
D03*
X022705Y051378D02*
D03*
X054618Y051772D02*
D03*
D15*
X049244Y057221D02*
D03*
X048244D02*
D03*
X047244D02*
D03*
X046244D02*
D03*
X04526D02*
D03*
X035194Y057214D02*
D03*
X034194D02*
D03*
X033194D02*
D03*
X032194D02*
D03*
X031209D02*
D03*
D16*
X051457Y051969D02*
X051843Y052355D01*
Y057935D01*
X052447Y058539D01*
X051489Y059521D02*
X052508Y060539D01*
X051489Y054678D02*
Y059521D01*
X049449Y052638D02*
X051489Y054678D01*
X052447Y058539D02*
X053224D01*
X05666Y061539D02*
X057601Y06248D01*
X056224Y061539D02*
X05666D01*
X057601Y06248D02*
X057874D01*
X055719Y070973D02*
X058798Y067894D01*
X057992Y058465D02*
X058798Y05927D01*
Y067894D01*
X055461Y070619D02*
X058443Y067636D01*
X05807Y059536D02*
X058443Y059909D01*
Y067636D01*
X020755Y053443D02*
Y066404D01*
X022904Y068552D01*
X020755Y053443D02*
X021049Y05315D01*
X023364Y060155D02*
X023491D01*
X021819Y05861D02*
X023364Y060155D01*
X02296Y064259D02*
X023961Y06526D01*
X02296Y061449D02*
Y064259D01*
X022105Y060595D02*
X02296Y061449D01*
X022574Y065645D02*
X023483Y066554D01*
X022574Y062047D02*
Y065645D01*
X022126Y061598D02*
X022574Y062047D01*
X032665Y062205D02*
X033194Y062733D01*
X030187Y062205D02*
X032665D01*
X033194Y062733D02*
Y063214D01*
X027132Y06526D02*
X030187Y062205D01*
X027455Y059343D02*
X028423Y058374D01*
Y055166D02*
Y058374D01*
Y055166D02*
X028986Y054603D01*
X030751D01*
X031292Y054063D01*
X036294Y055572D02*
Y057917D01*
X033965Y053243D02*
X036294Y055572D01*
X033965Y050542D02*
Y053243D01*
X027626Y053676D02*
Y056869D01*
X027152Y057343D02*
X027626Y056869D01*
X026697Y057343D02*
X027152D01*
X027209Y058343D02*
X02798Y057571D01*
Y054894D02*
Y057571D01*
Y054894D02*
X030354Y05252D01*
X027626Y053676D02*
X029408Y051894D01*
X023961Y06526D02*
X027132D01*
X035352Y058858D02*
X036294Y057917D01*
X029134Y058858D02*
X035352D01*
X036732Y053819D02*
Y05811D01*
X034787Y051874D02*
X036732Y053819D01*
X031832Y066554D02*
X033677Y064709D01*
X023483Y066554D02*
X031832D01*
X054651Y044462D02*
X054724Y044535D01*
X054047Y044462D02*
X054651D01*
X05381Y0447D02*
X054047Y044462D01*
X040724Y0447D02*
X05381D01*
X05408Y043535D02*
X054724D01*
X053396Y044219D02*
X05408Y043535D01*
X04481Y044219D02*
X053396D01*
X043504Y042913D02*
X04481Y044219D01*
X053208Y045728D02*
X054016Y046535D01*
X031752Y045728D02*
X053208D01*
X030906Y044882D02*
X031752Y045728D01*
X054403Y045214D02*
X054724Y045535D01*
X03675Y045214D02*
X054403D01*
X035039Y043504D02*
X03675Y045214D01*
X039173Y04315D02*
X040724Y0447D01*
X053025Y043707D02*
X053961Y042772D01*
X048629Y043707D02*
X053025D01*
X047835Y042913D02*
X048629Y043707D01*
X042201Y069403D02*
X043771Y070973D01*
X042201Y063704D02*
Y069403D01*
Y063704D02*
X044173Y061732D01*
X042592Y06911D02*
X0441Y070619D01*
X055461D01*
X043771Y070973D02*
X055719D01*
X052107Y06987D02*
X055236Y066741D01*
X044094Y068722D02*
X045243Y06987D01*
X052107D01*
X054195Y060218D02*
Y066709D01*
X051436Y069469D02*
X054195Y066709D01*
X045917Y069469D02*
X051436D01*
X053516Y059539D02*
X054195Y060218D01*
X02939Y059352D02*
X035491D01*
X027399Y061343D02*
X02939Y059352D01*
X026697Y061343D02*
X027399D01*
X029032Y068552D02*
X029134Y06845D01*
X022904Y068552D02*
X029032D01*
X035491Y059352D02*
X036732Y05811D01*
X038493Y049998D02*
Y067326D01*
X037275Y04878D02*
X038493Y049998D01*
X029252Y04878D02*
X037275D01*
X03637Y069449D02*
X038493Y067326D01*
X032755Y069449D02*
X03637D01*
X045Y068552D02*
X045917Y069469D01*
X046063Y068622D02*
X046555Y069114D01*
X050902D01*
X053224Y066792D01*
X023498Y057343D02*
X023697D01*
X022087Y055931D02*
X023498Y057343D01*
X022087Y053307D02*
Y055931D01*
X021856Y060595D02*
X022105D01*
X021781Y06052D02*
X021856Y060595D01*
X021819Y061598D02*
X022126D01*
X021566Y059629D02*
X021983D01*
X023697Y061343D01*
X02765Y060343D02*
X029134Y058858D01*
X026697Y060343D02*
X02765D01*
X026697Y051335D02*
Y056343D01*
Y051335D02*
X029252Y04878D01*
X035195Y056219D02*
Y057214D01*
X034787Y055811D02*
X035195Y056219D01*
X034199Y056583D02*
Y057214D01*
X033447Y055831D02*
X034199Y056583D01*
X033078Y055831D02*
X033447D01*
X032539Y056559D02*
X033194Y057214D01*
X032346Y056559D02*
X032539D01*
X031667Y055879D02*
X032346Y056559D01*
X031292Y055879D02*
X031667D01*
X030686Y057214D02*
X031209D01*
X035194Y063214D02*
Y064004D01*
X034646Y064552D02*
X035194Y064004D01*
X033677Y06373D02*
X034194Y063214D01*
X033677Y06373D02*
Y064709D01*
X032194Y063214D02*
Y064153D01*
X031795Y064552D02*
X032194Y064153D01*
X030522Y063214D02*
X031194D01*
X057971Y059536D02*
X05807D01*
X057786Y059351D02*
X057971Y059536D01*
X056954Y059561D02*
X057765Y060372D01*
X056954Y059269D02*
Y059561D01*
X056224Y058539D02*
X056954Y059269D01*
X057323Y061351D02*
X057744D01*
X056929Y060957D02*
X057323Y061351D01*
X056929Y060258D02*
Y060957D01*
X057744Y061351D02*
X057874Y06148D01*
X056224Y059553D02*
X056929Y060258D01*
X045639Y067323D02*
X04874D01*
X045Y067962D02*
X045639Y067323D01*
X045Y067962D02*
Y068552D01*
X053224Y063539D02*
Y066792D01*
X021049Y05315D02*
X021929D01*
X049213Y063252D02*
Y064567D01*
Y063252D02*
X049244Y063221D01*
X053159Y062474D02*
X053224Y062539D01*
X051805Y062474D02*
X053159D01*
X049173Y059843D02*
X051805Y062474D01*
X021929Y05315D02*
X022087Y053307D01*
X037707Y050606D02*
Y066703D01*
X036862Y049761D02*
X037707Y050606D01*
X034746Y049761D02*
X036862D01*
X033965Y050542D02*
X034746Y049761D01*
X035921Y068489D02*
X037707Y066703D01*
X042592Y066754D02*
Y06911D01*
Y066754D02*
X04336Y065985D01*
X046495D02*
X047244Y065236D01*
X04336Y065985D02*
X046495D01*
X044094Y068504D02*
Y068722D01*
X055236Y063228D02*
Y066741D01*
X044173Y061732D02*
X047795D01*
X048244Y062181D01*
Y063221D01*
X049449Y05126D02*
Y052638D01*
X050394Y051969D02*
X051457D01*
X030354Y051457D02*
Y05252D01*
X054606Y042772D02*
X054724Y042654D01*
X053961Y042772D02*
X054606D01*
X055925Y062539D02*
X056224D01*
X055236Y063228D02*
X055925Y062539D01*
X029132Y064604D02*
X030522Y063214D01*
X030906Y042913D02*
Y044882D01*
X034646Y068489D02*
X035921D01*
X033078Y051818D02*
Y051894D01*
X032205Y050945D02*
X033078Y051818D01*
X030866Y050945D02*
X032205D01*
X044479Y058543D02*
X049134D01*
X052508Y060539D02*
X053224D01*
X05213Y061539D02*
X053224D01*
X049134Y058543D02*
X05213Y061539D01*
X049213Y067795D02*
Y068504D01*
X053224Y059539D02*
X053516D01*
X049055Y050866D02*
X049449Y05126D01*
X047559Y050866D02*
X049055D01*
X046457Y051969D02*
X047559Y050866D01*
X047441Y052953D02*
X048425Y051969D01*
X044882Y052953D02*
X047441D01*
X029408Y055936D02*
X030686Y057214D01*
X029408Y055831D02*
Y055936D01*
X046063Y063402D02*
X046244Y063221D01*
X046063Y063402D02*
Y064567D01*
X044094Y06437D02*
X045244Y063221D01*
X044094Y06437D02*
Y064567D01*
X050394Y055906D02*
Y056071D01*
X049244Y057221D02*
X050394Y056071D01*
X048244Y056087D02*
X048425Y055906D01*
X048244Y056087D02*
Y057221D01*
X047244Y056693D02*
Y057221D01*
X046457Y055906D02*
X047244Y056693D01*
X044488Y056449D02*
X04526Y057221D01*
X044488Y055906D02*
Y056449D01*
X054724Y042535D02*
Y042654D01*
X054016Y046535D02*
X054724D01*
X043504Y040945D02*
Y042913D01*
X047835Y040945D02*
Y042913D01*
X039173Y040945D02*
Y042913D01*
X035039Y040945D02*
Y042913D01*
X030906Y040945D02*
Y042913D01*
X043362Y057426D02*
X044479Y058543D01*
X043362Y054472D02*
Y057426D01*
Y054472D02*
X044882Y052953D01*
X04252Y053937D02*
X044488Y051969D01*
X04252Y053937D02*
Y05811D01*
X044252Y059843D01*
X049173D01*
X046063Y068504D02*
Y068622D01*
X035039Y042913D02*
Y043504D01*
X039173Y042913D02*
Y04315D01*
X031292Y051942D02*
Y054063D01*
X030354Y051457D02*
X030866Y050945D01*
X026697Y059343D02*
X027455D01*
X026697Y058343D02*
X027209D01*
X04874Y067323D02*
X049213Y067795D01*
X047244Y063221D02*
Y065236D01*
X031795Y068489D02*
X032755Y069449D01*
X057874Y058465D02*
X057992D01*
X056224Y059539D02*
Y059553D01*
D17*
X059172Y05402D02*
Y06816D01*
X055985Y071347D02*
X059172Y06816D01*
X058348Y053196D02*
X059172Y05402D01*
X020381Y053035D02*
Y066698D01*
X021129Y062271D02*
X021453Y062595D01*
X021129Y054385D02*
Y062271D01*
Y054385D02*
X021369Y054146D01*
X020381Y066698D02*
X023172Y069488D01*
X020381Y053035D02*
X020878Y052537D01*
X0249Y062841D02*
Y064305D01*
X024402Y062343D02*
X0249Y062841D01*
X023697Y062343D02*
X024402D01*
X0249Y064305D02*
X025327Y064732D01*
X024642Y056343D02*
X02632Y054664D01*
Y049664D02*
Y054664D01*
Y049664D02*
X029134Y04685D01*
X025327Y064732D02*
X027006D01*
X030114Y061625D02*
X035251D01*
X027006Y064732D02*
X030114Y061625D01*
X029961Y069488D02*
X030322Y069127D01*
Y068256D02*
Y069127D01*
Y068256D02*
X031382Y067196D01*
X034517D02*
X036761Y064953D01*
X031382Y067196D02*
X034517D01*
X022734Y052537D02*
X023654Y053457D01*
X020878Y052537D02*
X022734D01*
X041614Y052087D02*
Y069515D01*
X040709Y051181D02*
X041614Y052087D01*
Y069515D02*
X043446Y071347D01*
X052495Y070244D02*
X056224Y066515D01*
X043057Y068828D02*
X044473Y070244D01*
X052495D01*
X043446Y071347D02*
X055985D01*
X036761Y063135D02*
Y064953D01*
X035251Y061625D02*
X036761Y063135D01*
X055977Y053196D02*
X058348D01*
X055097Y054076D02*
X055977Y053196D01*
X055097Y054076D02*
Y057144D01*
X022251Y057591D02*
X023002Y058343D01*
X02189Y057591D02*
X022251D01*
X023002Y058343D02*
X023697D01*
X021453Y062595D02*
X021819D01*
X023697Y056343D02*
X024642D01*
X023654Y0563D02*
X023697Y056343D01*
X023654Y053457D02*
Y0563D01*
X057788Y057394D02*
X057874Y05748D01*
X057788Y054638D02*
Y057394D01*
X057677Y054528D02*
X057788Y054638D01*
X055097Y057144D02*
X055492Y057539D01*
X025291Y052535D02*
Y054146D01*
X024134Y051378D02*
X025291Y052535D01*
X043584Y066575D02*
X050315D01*
X043057Y067102D02*
X043584Y066575D01*
X043057Y067102D02*
Y068828D01*
X041614Y059528D02*
X042874Y060787D01*
X056224Y063539D02*
Y066515D01*
X054331Y041535D02*
X054724D01*
X052953Y042913D02*
X054331Y041535D01*
X022705Y051378D02*
X024134D01*
X039173Y04685D02*
Y047992D01*
X040354Y049173D01*
Y051181D01*
X029134Y04685D02*
X030906D01*
X055492Y057539D02*
X056224D01*
X056614Y040709D02*
Y047992D01*
X056024Y048583D02*
X056614Y047992D01*
X052992Y048583D02*
X056024D01*
X026378Y03987D02*
Y041732D01*
X024803Y043307D02*
X026378Y041732D01*
X024409Y04685D02*
X030906D01*
X020866Y043307D02*
X024409Y04685D01*
X040354Y051181D02*
X040709D01*
X051457Y063504D02*
Y065433D01*
X05374Y05265D02*
X054618Y051772D01*
X05374Y05265D02*
Y054528D01*
X040461Y058449D02*
Y061993D01*
X040354Y055118D02*
X040461Y055224D01*
Y058449D01*
X051968Y04685D02*
Y047559D01*
X052992Y048583D01*
X056024Y040118D02*
X056614Y040709D01*
X052705Y040118D02*
X056024D01*
X051878Y040945D02*
X052705Y040118D01*
X051968Y042913D02*
X052953D01*
X043504Y04685D02*
X047835D01*
X030906D02*
X035039D01*
X039173D02*
X043504D01*
X035039D02*
X039173D01*
X020866Y041126D02*
X021835Y040157D01*
X020866Y041126D02*
Y043307D01*
X042874Y060787D02*
X04874D01*
X051457Y063504D01*
X050315Y066575D02*
X051457Y065433D01*
X023172Y069488D02*
X029961D01*
D18*
X020027Y051745D02*
Y066956D01*
X023505Y070434D01*
X020027Y051745D02*
X020394Y051378D01*
X034664Y06755D02*
X037115Y0651D01*
X031529Y06755D02*
X034664D01*
X030917Y068163D02*
X031529Y06755D01*
X037115Y062141D02*
Y0651D01*
X035998Y061024D02*
X037115Y062141D01*
X035394Y061024D02*
X035998D01*
X034961Y060591D02*
X035394Y061024D01*
X029488Y060591D02*
X034961D01*
X030917Y068163D02*
Y069033D01*
X03082Y06913D02*
X030917Y069033D01*
X03082Y06913D02*
Y06973D01*
X054743Y053929D02*
Y055021D01*
X055618Y051772D02*
Y053054D01*
X054743Y053929D02*
X055618Y053054D01*
X053224Y056539D02*
X054743Y055021D01*
X020237Y04991D02*
X021705Y051378D01*
X020237Y039487D02*
Y04991D01*
Y039487D02*
X020787Y038937D01*
X02611Y063343D02*
X026736D01*
X024685Y061918D02*
X02611Y063343D01*
X024685Y060236D02*
Y061918D01*
X054598Y059244D02*
X055894Y060539D01*
X054598Y05763D02*
Y059244D01*
X053508Y056539D02*
X054598Y05763D01*
X020394Y051378D02*
X021705D01*
X030086Y070434D02*
X030805Y069715D01*
X023505Y070434D02*
X030086D01*
X038101Y070307D02*
X039461Y068948D01*
X031397Y070307D02*
X038101D01*
X03082Y06973D02*
X031397Y070307D01*
X039461Y061993D02*
Y068948D01*
X058307Y040276D02*
Y048268D01*
X055618Y050957D02*
X058307Y048268D01*
X055618Y050957D02*
Y051772D01*
X057126Y039094D02*
X058307Y040276D01*
X055894Y060539D02*
X056224D01*
X050878Y040091D02*
Y040945D01*
X049843Y039055D02*
X050878Y040091D01*
X047087Y039055D02*
X049843D01*
X045866Y040276D02*
X047087Y039055D01*
X045866Y040276D02*
Y040945D01*
Y040079D02*
Y040945D01*
X044803Y039016D02*
X045866Y040079D01*
X042835Y039016D02*
X044803D01*
X041535Y040315D02*
X042835Y039016D01*
X041535Y040315D02*
Y040945D01*
Y040276D02*
Y040945D01*
X040276Y039016D02*
X041535Y040276D01*
X038425Y039016D02*
X040276D01*
X037205Y040236D02*
X038425Y039016D01*
X037205Y040236D02*
Y040945D01*
Y040197D02*
Y040945D01*
X036024Y039016D02*
X037205Y040197D01*
X03437Y039016D02*
X036024D01*
X033071Y040315D02*
X03437Y039016D01*
X033071Y040315D02*
Y040945D01*
X030079Y038937D02*
X031811D01*
X028937Y040079D02*
X030079Y038937D01*
X028937Y040079D02*
Y040945D01*
X031811Y038937D02*
X033071Y040197D01*
Y040945D01*
X023622Y038937D02*
X023835Y03915D01*
X020787Y038937D02*
X023622D01*
X023835Y03915D02*
Y040157D01*
X023744Y059295D02*
X024685Y060236D01*
X050878Y040146D02*
X051929Y039094D01*
X057126D01*
X039461Y058449D02*
Y061993D01*
X050878Y040146D02*
Y040945D01*
X028937Y03937D02*
Y040945D01*
X028437Y03887D02*
X028937Y03937D01*
X026378Y03887D02*
X028437D01*
X025122D02*
X026378D01*
X023835Y040157D02*
X025122Y03887D01*
X053224Y056539D02*
X053508D01*
X026736Y063343D02*
X029488Y060591D01*
M02*
