M48
;Layer_Color=9474304
;FILE_FORMAT=2:4
INCH,LZ
;TYPE=PLATED
T1F00S00C0.0315
T2F00S00C0.0512
%
T01
X020866Y043307
X024803
X026378Y03987
Y03887
X028937Y040945
X030906
Y042913
Y04685
X035039
Y042913
Y040945
X033071
X037205
X039173
Y042913
Y04685
X043504
Y042913
Y040945
X041535
X045866
X047835
Y042913
Y04685
X051968
X054724Y046535
Y045535
Y044535
Y043535
Y042535
Y041535
X051878Y040945
X050878
X051968Y042913
X050394Y051969
X048425
Y055906
X048244Y057221
X049244
X047244
X050394Y055906
X053224Y056539
Y057539
Y058539
Y059539
Y060539
Y061539
X056224
Y060539
Y059539
Y058539
Y057539
Y056539
X057786Y057351
Y058351
Y059351
Y060351
Y061351
Y062351
X057677Y054528
X05374
X054618Y051772
X055618
X046457Y051969
X044488
Y055906
X046457
X046244Y057221
X04526
X040461Y058449
X039461
Y061993
X040461
X040354Y055118
Y051181
X034787Y051874
X033078Y051894
X031292Y051942
Y055879
X033078Y055831
X033194Y057214
X034194
X035194
X034787Y055811
X032194Y057214
X031209
X029408Y055831
X026697Y056343
Y057343
Y058343
Y059343
Y060343
Y061343
Y062343
X023697
Y061343
Y060343
Y059343
Y058343
Y057343
Y056343
X021819Y057595
Y058595
Y059595
Y060595
Y061595
X021369Y054146
X021705Y051378
X022705
X025306Y054146
X029408Y051894
X029134Y064606
X031194Y063214
X026697Y063343
X023697
X021819Y062595
X029134Y068543
X031795Y068489
X034646
Y064552
X034194Y063214
X033194
X032194
X031795Y064552
X035194Y063214
X045244Y063221
X046244
X046063Y064567
X044094
Y068504
X046063
X049213Y068504
Y064567
X049244Y063221
X048244
X047244
X053224Y063539
Y062539
X056224
Y063539
T02
X021835Y040157
X023835
M30
